<?xml version="1.0" encoding="UTF-8"?>
<svg id="Livello_2" data-name="Livello 2" xmlns="http://www.w3.org/2000/svg" viewBox="0 0 378.79 150.48">
  <defs>
    <style>
      .cls-1 {
        fill: #b8473f;
      }

      .cls-1, .cls-2, .cls-3, .cls-4, .cls-5, .cls-6, .cls-7, .cls-8, .cls-9, .cls-10, .cls-11, .cls-12, .cls-13, .cls-14, .cls-15, .cls-16, .cls-17, .cls-18, .cls-19, .cls-20, .cls-21, .cls-22, .cls-23, .cls-24, .cls-25, .cls-26, .cls-27, .cls-28, .cls-29, .cls-30, .cls-31, .cls-32, .cls-33, .cls-34, .cls-35, .cls-36, .cls-37, .cls-38, .cls-39, .cls-40, .cls-41, .cls-42, .cls-43, .cls-44, .cls-45, .cls-46, .cls-47, .cls-48, .cls-49, .cls-50, .cls-51, .cls-52, .cls-53, .cls-54, .cls-55, .cls-56, .cls-57, .cls-58, .cls-59, .cls-60, .cls-61, .cls-62, .cls-63, .cls-64, .cls-65, .cls-66, .cls-67, .cls-68, .cls-69, .cls-70, .cls-71, .cls-72, .cls-73, .cls-74, .cls-75, .cls-76, .cls-77, .cls-78, .cls-79, .cls-80, .cls-81, .cls-82, .cls-83, .cls-84, .cls-85, .cls-86, .cls-87, .cls-88, .cls-89, .cls-90, .cls-91, .cls-92, .cls-93, .cls-94, .cls-95, .cls-96, .cls-97, .cls-98, .cls-99, .cls-100, .cls-101, .cls-102, .cls-103, .cls-104, .cls-105, .cls-106, .cls-107, .cls-108, .cls-109, .cls-110, .cls-111, .cls-112, .cls-113, .cls-114, .cls-115, .cls-116, .cls-117, .cls-118, .cls-119, .cls-120, .cls-121, .cls-122, .cls-123, .cls-124, .cls-125, .cls-126, .cls-127, .cls-128, .cls-129, .cls-130, .cls-131, .cls-132, .cls-133, .cls-134, .cls-135, .cls-136, .cls-137, .cls-138, .cls-139, .cls-140, .cls-141, .cls-142, .cls-143, .cls-144, .cls-145 {
        stroke-width: 0px;
      }

      .cls-2 {
        fill: #c5544b;
      }

      .cls-3 {
        fill: #b03e35;
      }

      .cls-4 {
        fill: #c25047;
      }

      .cls-5 {
        fill: #c04f47;
      }

      .cls-6 {
        fill: #ddcbbe;
      }

      .cls-7 {
        fill: #b9b0a8;
      }

      .cls-8 {
        fill: #aa6f6f;
      }

      .cls-9 {
        fill: #e6756c;
      }

      .cls-10 {
        fill: #b5a693;
      }

      .cls-11 {
        fill: #ed8381;
      }

      .cls-12 {
        fill: #cc5b53;
      }

      .cls-13 {
        fill: #b03f36;
      }

      .cls-14 {
        fill: #b24037;
      }

      .cls-15 {
        fill: #bc4b42;
      }

      .cls-16 {
        fill: #ac3a31;
      }

      .cls-17 {
        fill: #d2625b;
      }

      .cls-18 {
        fill: #874244;
      }

      .cls-19 {
        fill: #ca5950;
      }

      .cls-20 {
        fill: #a8372e;
      }

      .cls-21 {
        fill: #d05e55;
      }

      .cls-22 {
        fill: #c7554c;
      }

      .cls-23 {
        fill: #b6a795;
      }

      .cls-24 {
        fill: #f28178;
      }

      .cls-25 {
        fill: #8e6c66;
      }

      .cls-26 {
        fill: #d8675e;
      }

      .cls-27 {
        fill: #b9473e;
      }

      .cls-28 {
        fill: #eb807c;
      }

      .cls-29 {
        fill: #db6b62;
      }

      .cls-30 {
        fill: #c4534a;
      }

      .cls-31 {
        fill: #938373;
      }

      .cls-32 {
        fill: #d56966;
      }

      .cls-33 {
        fill: #e5756d;
      }

      .cls-34 {
        fill: #bc4d46;
      }

      .cls-35 {
        fill: #af3d34;
      }

      .cls-36 {
        fill: #c6544b;
      }

      .cls-37 {
        fill: #ac9d8c;
      }

      .cls-38 {
        fill: #906e68;
      }

      .cls-39 {
        fill: #a39485;
      }

      .cls-40 {
        fill: #c35249;
      }

      .cls-41 {
        fill: #d9685f;
      }

      .cls-42 {
        fill: #b8a997;
      }

      .cls-43 {
        fill: #c7b6a9;
      }

      .cls-44 {
        fill: #da6b63;
      }

      .cls-45 {
        fill: #c6b9a5;
      }

      .cls-46 {
        fill: #b2a492;
      }

      .cls-47 {
        fill: #a4332a;
      }

      .cls-48 {
        fill: #ce5c53;
      }

      .cls-49 {
        fill: #e68484;
      }

      .cls-50 {
        fill: #cf5d54;
      }

      .cls-51 {
        fill: #d05f56;
      }

      .cls-52 {
        fill: #b27272;
      }

      .cls-53 {
        fill: #a0968b;
      }

      .cls-54 {
        fill: #c8564d;
      }

      .cls-55 {
        fill: #c35148;
      }

      .cls-56 {
        fill: #c8574e;
      }

      .cls-57 {
        fill: #c95850;
      }

      .cls-58 {
        fill: #c45249;
      }

      .cls-59 {
        fill: #978576;
      }

      .cls-60 {
        fill: #cb5951;
      }

      .cls-61 {
        fill: #cb5950;
      }

      .cls-62 {
        fill: #e27168;
      }

      .cls-63 {
        fill: #dc6b62;
      }

      .cls-64 {
        fill: #8e7c6c;
      }

      .cls-65 {
        fill: #af7775;
      }

      .cls-66 {
        fill: #d16057;
      }

      .cls-67 {
        fill: #745352;
      }

      .cls-68 {
        fill: #ce5d55;
      }

      .cls-69 {
        fill: #e06f66;
      }

      .cls-70 {
        fill: #d4655e;
      }

      .cls-71 {
        fill: #f2837a;
      }

      .cls-72 {
        fill: #d1615a;
      }

      .cls-73 {
        fill: #e8766c;
      }

      .cls-74 {
        fill: #be5555;
      }

      .cls-75 {
        fill: #e57872;
      }

      .cls-76 {
        fill: #d6665e;
      }

      .cls-77 {
        fill: #d4635a;
      }

      .cls-78 {
        fill: #a33229;
      }

      .cls-79 {
        fill: #b9483f;
      }

      .cls-80 {
        fill: #cd5c53;
      }

      .cls-81 {
        fill: #ac3b33;
      }

      .cls-82 {
        fill: #c04f46;
      }

      .cls-83 {
        fill: #b1a392;
      }

      .cls-84 {
        fill: #cb5a51;
      }

      .cls-85 {
        fill: #db6d68;
      }

      .cls-86 {
        fill: #b5a694;
      }

      .cls-87 {
        fill: #b6463d;
      }

      .cls-88 {
        fill: #ba4940;
      }

      .cls-89 {
        fill: #a8362d;
      }

      .cls-90 {
        fill: #d4655d;
      }

      .cls-91 {
        fill: #af3e35;
      }

      .cls-92 {
        fill: #836661;
      }

      .cls-93 {
        fill: #e37269;
      }

      .cls-94 {
        fill: #ec7b72;
      }

      .cls-95 {
        fill: #fda099;
      }

      .cls-96 {
        fill: #8e4f4f;
      }

      .cls-97 {
        fill: #be4c43;
      }

      .cls-98 {
        fill: #cc5a51;
      }

      .cls-99 {
        fill: #cf5e55;
      }

      .cls-100 {
        fill: #c9584f;
      }

      .cls-101 {
        fill: #dc6b63;
      }

      .cls-102 {
        fill: #d7655c;
      }

      .cls-103 {
        fill: #aa3930;
      }

      .cls-104 {
        fill: #a33128;
      }

      .cls-105 {
        fill: #b14037;
      }

      .cls-106 {
        fill: #a18f81;
      }

      .cls-107 {
        fill: #af9e8e;
      }

      .cls-108 {
        fill: #b6453c;
      }

      .cls-109 {
        fill: #b13f36;
      }

      .cls-110 {
        fill: #b0575d;
      }

      .cls-111 {
        fill: #b04440;
      }

      .cls-112 {
        fill: #a59786;
      }

      .cls-113 {
        fill: #d1645e;
      }

      .cls-114 {
        fill: #dd6c63;
      }

      .cls-115 {
        fill: #df6e65;
      }

      .cls-116 {
        fill: #a7362d;
      }

      .cls-117 {
        fill: #c6554c;
      }

      .cls-118 {
        fill: #ae9e8d;
      }

      .cls-119 {
        fill: #cf5e56;
      }

      .cls-120 {
        fill: #a39482;
      }

      .cls-121 {
        fill: #ad9f8e;
      }

      .cls-122 {
        fill: #cb5b52;
      }

      .cls-123 {
        fill: #bb4a42;
      }

      .cls-124 {
        fill: #af9f8e;
      }

      .cls-125 {
        fill: #c5534a;
      }

      .cls-126 {
        fill: #eb827b;
      }

      .cls-127 {
        fill: #bc4a41;
      }

      .cls-128 {
        fill: #bd4c43;
      }

      .cls-129 {
        fill: #d26158;
      }

      .cls-130 {
        fill: #d6645c;
      }

      .cls-131 {
        fill: #b04747;
      }

      .cls-132 {
        fill: #cd5b52;
      }

      .cls-133 {
        fill: #978177;
      }

      .cls-134 {
        fill: #aea197;
      }

      .cls-135 {
        fill: #c95952;
      }

      .cls-136 {
        fill: #a59788;
      }

      .cls-137 {
        fill: #d5645d;
      }

      .cls-138 {
        fill: #b8473e;
      }

      .cls-139 {
        fill: #d1c6b7;
      }

      .cls-140 {
        fill: #975b5a;
      }

      .cls-141 {
        fill: #d5645b;
      }

      .cls-142 {
        fill: #ce5e56;
      }

      .cls-143 {
        fill: #d7665d;
      }

      .cls-144 {
        fill: #a29384;
      }

      .cls-145 {
        fill: #baab9b;
      }
    </style>
  </defs>
  <g id="Livello_1-2" data-name="Livello 1">
    <g>
      <path class="cls-64" d="M123.56,46.02c2.55,0,5.33.23,8.23.69-2.09,10.66-2.9,15.76-2.9,15.76,0,0-.7-14.71-11.24-14.71-8.11,0-10.54,12.05-11.01,21.55v8.34h11.01v1.74h-11.12c0,18.77.12,57.24.12,57.24,0,2.43.7,4.87,2.09,6.83s3.24,3.59,5.56,4.52h-29.08c4.75-1.85,7.76-6.37,7.76-11.35v-57.24h-7.07v-1.74h7.07c.35-9.62,3.94-21.09,13.67-27.11,4.4-2.78,9.85-4.52,16.92-4.52Z"/>
      <path class="cls-64" d="M157.5,136.39c0,5.1,3.13,9.73,7.88,11.59h-29.54c4.63-1.85,7.76-6.49,7.76-11.59V62.13c0-4.29-3.48-7.88-7.76-7.88l21.67-8.23v90.37Z"/>
      <path class="cls-64" d="M248.45,110.32c0,20.85-17.49,37.65-39.16,37.65s-39.16-16.8-39.16-37.65,17.61-37.77,39.16-37.77,39.16,16.92,39.16,37.77ZM233.97,110.32c0-19.81-11.01-35.92-24.56-35.92s-24.56,16.1-24.56,35.92,11.01,35.8,24.56,35.8,24.56-15.99,24.56-35.8Z"/>
      <path class="cls-64" d="M297.46,83.45c-.69-.58-1.62-1.04-2.66-1.39s-2.32-.58-3.82-.58-3.48.7-5.91,2.09c-2.43,1.51-4.63,4.05-6.6,7.88-1.97,3.82-3.01,9.38-3.01,16.45v28.27c0,2.55.7,4.87,2.2,7.07,1.51,2.2,3.36,3.71,5.79,4.75h-30.24c2.43-1.04,4.4-2.55,5.91-4.75,1.39-2.2,2.09-4.52,2.09-7.07v-44.95c0-2.2-.81-4.05-2.32-5.68-1.51-1.51-3.48-2.32-5.68-2.32l22.25-8.46v20.97c0-.69.46-2.32,1.27-4.75s2.32-5.1,4.4-7.88c2.09-2.78,4.98-5.21,8.69-7.3,3.59-2.08,8.23-3.13,13.79-3.13-.35,1.16-.69,2.2-1.04,3.13-.35,1.04-.7,1.85-.93,2.67-.35.81-.58,1.62-.7,2.2-.23.58-.46,1.16-.58,1.62-.12.46-.23.81-.35,1.16-.12.35-.23.69-.35.93s-.12.46-.12.58-.12.23-.23.23-.35-.12-.46-.35c-.35-.35-.81-.81-1.39-1.39Z"/>
      <path class="cls-64" d="M375.31,131.76l1.16.58c-5.45,7.76-13.56,15.64-31.86,15.64s-31.75-11.35-36.26-26.65c-.12-.46-.23-1.04-.35-1.62-.35-1.27-.58-2.67-.81-3.94-.12-.7-.12-1.27-.23-1.85-.12-1.28-.12-2.67-.12-4.05,0-23.52,15.64-36.96,38-37.19h.46c12.4.12,20.51,5.1,25.72,11.59,3.59,4.52,5.91,9.85,7.3,14.83.23.58.35,1.04.46,1.62l-13.79,4.05-43.56,12.75c5.56,18.54,20.39,25.95,31.86,25.95,10.08,0,16.22-4.06,22.01-11.7ZM320.97,115.88l43.8-12.86c-1.74-10.54-9.96-27.69-24.68-27.69-1.39,0-2.9.12-4.52.46-12.63,2.9-16.22,16.68-16.22,27.92,0,4.87.7,9.15,1.51,12.05l.12.12ZM350.52,63.52l-1.04.93-16.34-16.45,1.85-1.74,15.53,17.26Z"/>
      <g>
        <path class="cls-10" d="M66.69,129.05l-.2-2.06c-.36-.47-.32-1.14-.8-1.57-.27-.25-.25-.62-.03-.94.29-.41.4-.95.3-1.35-.55-2.35.14-4.91-1.2-7.12-1.28,0-1.71.52-1.36,1.68.1.33.23.64.22.99,0,.25.07.5-.08.73-.15-.05-.14-.19-.18-.3-.18-.43-.37-1.03-.9-.91-.51.12-.17.73-.24,1.12-.04.24-.04.51.09.75.25,8.33.58,16.65,1.54,24.94.12,1.07.32,2.12,1.08,2.97.75.09.65.89,1.05,1.27.65.61,1.41,1.53,2.22,1.17.85-.39.25-1.54.3-2.36.02-.29-.1-.58-.16-.87-.43.23-.38-.15-.42-.35-.17-.99-.18-2.01-.37-3-.47-.57-.97-1.09-.44-1.92.24-.37-.04-.84,0-1.26,0-.12-.02-.24-.04-.36-.23-.53-.55-.99.04-1.59.37-.37.15-1.07.09-1.62-.07-.6-.15-1.18.03-1.77.03-.62.03-1.24-.2-1.83-.52-.23-.48.56-.96.48.73-.44.77-1.03.22-1.54-.47-.44-.96-.9-1.69-1.07.4-.33.79-.25,1.16-.26.12-.02.23-.06.33-.13.59-.51.04-1.37.6-1.89Z"/>
        <path class="cls-15" d="M79.18,4.51c-.89.5-1.62,1.17-2.18,2.03-.19.59-.18,1.17.23,1.72-.55.02-.99.29-1.46.05-.4.37-.62.84-.76,1.35.01.89-.9,1.75-.09,2.66.11.06.23.08.36.07.21-.08.35-.23.46-.5.36,1.62-.11,3.16-.09,4.71.06.36-.03.76.22,1.09,1.08.36,1.89-.41,2.62-.88.75-.48.59-1.4-.1-2.7.85-.2,1.52-.69,2.15-1.25.27-.58,0-1.39.42-1.8.43-.42,1.21-.01,1.81-.21.16-.05.33-.08.47-.17.59-.57.56-1.42.95-2.08,0-.49.24-.94.23-1.44,0-.21-.08-.42-.06-.64.05-.59-.03-1.16-.65-1.4-.6-.23-.91.25-1.29.61-.47.46-.96.89-1.45-.11-.33-.66-1.03-1.01-1.8-1.1Z"/>
        <path class="cls-141" d="M46.44,18.51c1.1,3.03,3.08,5.53,4.96,8.08,1.17,1.58,2.31,3.19,3.73,4.58.68.33,1.12-.11,1.57-.51.08-.1.15-.21.19-.33.14-.98-.49-1.48-1.23-1.88-1.9-1.03-2.45-2.57-1.64-4.53.09-.22.21-.36.44-.41.83-.17.91-.79.89-1.46-.06-.26-.19-.47-.39-.63-1.06-.23-1.1-1.19-1.27-1.95-.15-.69-.31-1.39-.37-2.11-.06-.11-.15-.21-.25-.29-.42-.18-.76-.03-1.08.23-.36.3-.46.94-1.12.85-.18,0-.36.02-.52.1-.98.7-.48,1.78-.61,2.68-.41.03-.5-.14-.49-.46.04-1.45-1.26-2.35-2.81-1.96Z"/>
        <path class="cls-37" d="M62.32,120.06c.03-.49.05-.98.08-1.47.39.93.82,1.71,2.02,1.48-.59-.64.25-1.49-.32-2.13-.84-.94-.27-1.42.57-1.83.27-.2.37-.51.28-.8-.33-1.08-.21-2.2-.42-3.29-.15-.75-.38-1.54-1.45-1.38-.09,1.01-.17,2.02-.28,3.21-1.79-3.99-3.43-7.88-5.67-11.47-.48-.19-.75-.67-1.2-.88-.35-.17-.81-.66-1.11.11,1.4,2.8,3.03,5.47,4.24,8.36,1.37,3.27,2.95,6.47,3.25,10.08Z"/>
        <path class="cls-69" d="M73.49,39.47c1.19-1.3,2.39-2.6,3.58-3.9,0-.6.38-.85.89-.99.77-.69,1.44-1.47,2-2.33,1.04-1.86,2.35-3.49,3.92-4.93.76-.74,1.28-1.65,1.79-2.56.14-1.45-1.57-3.24-3-3.15-.67.04-1.12.57-1.06,1.09.1.85-.49,1.11-.91,1.55-.4,1.16-.98,2.27-.93,3.54.01.31.05.74-.25.8-1.41.28-1.52,1.72-2.34,2.51-.11.49.24.76.54,1.09-1.29,0-1.95.73-2.32,2.51-.15.92-.85,1.3-1.59,1.65-.22.13-.37.31-.49.53-.17.61-.27,1.27-.95,1.58-.08.1-.14.21-.18.33.02,1.02.56,1.04,1.29.67Z"/>
        <path class="cls-50" d="M55.09,22.11c-.34.33-.22,1.31-1.18.76-.27-.16-.44.24-.46.48-.07.97-.19,1.94-.31,2.91-.19,1.43.85,2.12,2.02,2.55.8.29,1.36.71,1.49,1.59.25,1.16.8,2.22,1.22,3.32.19.5.64.95,1.12,1.22.98.56,1.37,1.36,1.28,2.45.05.28.23.47.47.61.44-.02.54.39.78.62.87.58,1.41-.1,2-.54.4-.67.17-1.24-.33-1.73-1.03-1-1.75-2.19-2.15-3.57-.06-.21-.17-.41-.34-.54-.68-.51-1.17-1.12-1.15-2.03.01-.52-.67-.67-.7-1.18-.02-.12-.04-.24-.07-.35-.21-.36-.3-.77-.34-1.18-.45-1.72-1.46-3.17-2.24-4.73-.2-.4-.52-.81-1.11-.65Z"/>
        <path class="cls-118" d="M68.85,74.93c.27-1.02.19-2.05.2-3.09-1.03.43-1.82-.4-2.75-.51-.36,3.65-.76,7.3-1.08,10.95-.12,1.35-.51,2.68-.33,4.06.47.26.3.77.4,1.15.19.77.62,1.24,1.4,1.24.83,0,.92-.55,1.03-1.29.1-.71.26-1.39.14-2.1,0,0,.07-.04.1-.04.04,0,.08.03.11.05.49-2.07.44-4.18.47-6.28-.41-.35-.54.08-.81.25-.56.37-1.01.26-1.24-.6.18.27-.01.08.16.07q1.46-.12,1.65-.47s.02-.09,0-.13c-.5-1.2-.49-2.32.53-3.27Z"/>
        <path class="cls-42" d="M63.08,110.65c.71.51.93,1.16.93,2.07.01,1.14.1,2.34.66,3.4.59,2.03-.16,4.25.86,6.22.14.27.13.39-.16.6-.43.3-.37.44.21.99-1.49.27-.98,1.09-.45,1.74.39.48.74,1.05,1.35,1.33-.07-5.58-.15-11.15-.22-16.73.14-.63-.11-1.3.21-1.91,0-.09,0-.17,0-.26-.45-.37-.64-.9-.87-1.41-.29-.63-.74-1.17-1.32-1.55-.57-.37-1.06-.45-1.04.51,0,.46.11.94-.09,1.4-.16,1.2-.14,2.4-.08,3.61Z"/>
        <path class="cls-129" d="M30.27,59.92c-.02-1.15-.08-2.29-.46-3.39-.78-1.47-1.02-3.03-.84-4.67-.3-2.29-.96-4.49-1.62-6.69-1.25-.1-1.6.22-1.2,1.27.21.55.08,1-.03,1.5-.09.45-.06.9-.02,1.42-.81-.57-.55-2.37-2.19-1.61.28,1.77.44,3.58,1.75,4.99.31-.16.39-.42.35-.74.08.42-.2.66-.46.91.08,1.79.28,3.55,1.02,5.21.15.23.29.47.35.74.04.17.04.35.03.52.28,1.04.41,2.15,1.27,2.94.66-.67,1.49-1.15,2.09-1.89.04-.18.05-.35-.06-.51Z"/>
        <path class="cls-23" d="M68.07,85.37c-.02-.13,0-.3-.07-.37-.25-.26-.27.07-.28.16-.08.76-.03,1.52-.37,2.25-.16.34.12.93-.55.96-.61.03-.92-.37-1.1-.91-.15-.45-.03-1.11-.81-1.11,0,.15.02.31.02.46-.34.77.14,1.62-.27,2.38-.02.25-.04.5-.05.76,1.15,1.04,1.22,1.56.11,2.58-.71.64-.31,1.19-.02,1.7.66,1.16.51,2.32.04,3.43-.25.59-.58,1.15-.72,1.78-.17.79.17,1.14,1.15.93-1.12.91-1.13,1.77-.32,2.86.39.52.61,1.31.64,2.07.02.49.26,1.04.8,1.02.65-.03.13-.74.43-1.04.44-5.79.9-11.58,1.33-17.36.06-.84.45-1.67.04-2.52Z"/>
        <path class="cls-77" d="M11.57,61.24c-3.29.08-6.55.3-9.39,2.26.02,1.09.76,1.87,1.22,2.76.19.18.41.28.68.23.98-.96,2.08-1.08,3.34-.58.51.2.95.57,1.53.6.5.02.91-.19,1.28-.5.36-.29.77-.39,1.2-.25,1.21.39,2.07,0,2.65-1.1.07-.17.08-.35.03-.53-.25-.38-.53-.74-.59-1.21-.13-.21-.32-.35-.55-.43-.69,0-.53-.94-1.13-1.05-.1-.06-.19-.12-.28-.2Z"/>
        <path class="cls-63" d="M24.01,47.75c.64-.02.94.37,1.02.94.08.56.44.91.82,1.26.23.21.47.39.8.17.33-.23.28-.47.05-.75-.35-.43-.24-1.02-.04-1.35.56-.91.43-1.61-.42-2.19.3-.48.9-.23,1.12-.66.01-.6-.2-1.13-.46-1.65-.27.09-.48.21-.76-.13-.67-.83-.93-2.08-2.22-2.32-.14-.03-.17-.18-.15-.31.12-.87-.48-1.51-.7-2.25-.32-1.1-.74-1.92-1.88-2.28-.15-.05-.17-.28-.19-.45-.6-.47-1.24-.64-1.95-.24.09.07.19.13.29.18-.1-.05-.2-.11-.29-.19-.9-.16-1.28.54-1.76,1.07.42.75.36,1.78,1.32,2.2,1.71-.17,2.15.15,2.32,1.75.71.89.96,2.01,1.52,2.98.11.28.12.58.13.88,0,.18.01.37.05.55.3.37.07,1,.61,1.26.19.06.29-.15.43-.16-.03,0-.06.02-.08.03-.11.08-.19.17-.27.27-.11.63-.18,1.24.68,1.39Z"/>
        <path class="cls-86" d="M66.3,71.34c.24.23.49.45.71.7.82.92,1.24.88,2.04-.19.28-3.17.53-6.35.59-9.53-.36-1.02-.13-2.07-.18-3.1-.06-1.29-.55-1.93-1.65-2.14-.27,2.5-.53,5.01-.8,7.51.2,1.15.11,2.27-.27,3.37-.55,1.07-.11,2.28-.45,3.38Z"/>
        <path class="cls-40" d="M67.27,1.66c-.37-.53-.91-.82-1.47-1.09-1.24-.24-2.48-.35-3.71.05-.37.13-.62.38-.81.71-.5.9-.38,1.72.34,2.46.52.53.52,1.24.63,1.91.04.2.11.38.23.54,1.19.35,1.22,1.3,1.19,2.29-.03.92-.1,1.84.14,2.75,1.57.27,2.65-1.06,2.4-2.95-.14-1.1-.32-2.19.15-3.25.16-.42.57-.66.78-1.04q1.18-.65.12-2.38Z"/>
        <path class="cls-117" d="M59.18,5.96c-.5.93-.42,1.95-.41,2.95.54.59.33,1.2.03,1.8-.07.38-.08.76.13,1.11.37.07.28.39.34.63.02.93,0,1.87.38,2.74.33.73-.13,1.42-.03,2.13.24,2.07.87,4.07,1.18,6.13.03.17.21.26.37.33,1-.13,1.35-.92,1.71-1.65,0,1.31.24,1.53,1.27,1.12.26-1.46,0-2.88-.26-4.3-.18-.72-.82-1.14-1.14-1.76-.28-.53-.57-1.15.34-1.45.33-1-.15-1.87-.45-2.77-.89-.65-1.44-1.35-.57-2.44.18-.23.08-.58-.15-.83-.67-.2-1.38-.33-1.12-1.34.06-.23-.12-.48-.32-.65-.35-.18-.57-.41-.59-.86-.02-.42-.2-.82-.71-.89Z"/>
        <path class="cls-124" d="M66.71,105.25c-.28.15-.09.73-.43.66-.31-.06-.39-.43-.3-.85.23-1.02-.8-1.77-.71-2.82.03-.36-.54.05-.82-.26.48-.54,1.03-1.07.94-1.9-.02-.18.54-.33.06-.55-.31-.14-.46.06-.55.35-.07.24-.24.36-.48.17-.16-.13-.1-.3-.03-.47.17-.39.21-.92.5-1.16.9-.77,1.01-1.56.53-2.63-.29-.64.63-.35.82-.69-.26-.92-1.55-.93-1.7-1.94.3-.32.82.51.94-.15.17-.92,1.07-1.72.7-2.65-.16-.42-.93-.76-1.59-.42-.58,3.5-.68,7.05-1.01,10.57-.2,2.17-.29,4.35-.43,6.52.41-.51.1-1.17.36-1.82.75.51,1.41,1.05,1.66,1.93.19.68.59,1,1.3.94.24-.93.23-1.89.23-2.84Z"/>
        <path class="cls-114" d="M15.98,47.01c-1.83-1.8-4.04-2.94-6.47-3.7-.48.59.08,1.14.05,1.73-.06,1.24-.29,1.42-1.36.9-.36-.18-.71-.34-1.08-.03-.12,1.28.77,1.96,1.61,2.67,1.51-.06,2.44,1.03,3.54,1.78.5.34.96.74,1.62.69.94-.14,1.31-.62.81-1.51-.31-.55.21-.38.39-.52.81-.45,1.26-1.05.89-2.02Z"/>
        <path class="cls-115" d="M3.55,66.14c.06-1.15-.68-1.88-1.38-2.63-2.9,1.57-2.93,5.44.07,7.1,1.08.6,2.16,1.16,3.35,1.49.54-.34,1.06-1.68.63-2.06-1-.87-.57-1.71-.23-2.62.04-.11-.03-.25-.08-.37-.48-.51-1.01-.86-1.75-.52-.27.05-.31.39-.56.46-.16-.28-.1-.57-.06-.86Z"/>
        <path class="cls-60" d="M88.89,7.35c-.73-1.69-1.7-3.16-3.51-3.87-.36-.2-.79-.28-1.04.05-.32.43-.12,1.02.18,1.31.84.77.54,1.85.9,2.74-.09.01-.16.05-.24.1-.09.08-.15.17-.2.28-.41,1.37.37,2.49.8,3.68.38.26.92.12,1.05.93.17,1.03,1.92,1.51,2.96,1.03.26-.45.11-.89,0-1.33-.15-.11-.17-.28-.24-.43-.2-.54.03-1.09-.04-1.64.07-1.01-.54-1.86-.64-2.83Z"/>
        <path class="cls-77" d="M58.46,13.26c-.88-1.59-2.13-2.84-3.64-3.84-.67.2-1.11-.3-1.65-.51-.58-.22-1.05-.78-1.76-.62-.51.59-.44,1.18.07,1.71.36.38.47.8.4,1.29,0,.19.03.38.11.55.34.57.81.99,1.42,1.26,1.12.31,1.78.84,1.4,2.19-.22.8.65,1.12,1.15,1.53.94.77,2.19.62,3.06-.26.37-1.2-.46-2.2-.56-3.32Z"/>
        <path class="cls-41" d="M81,24.45c.41-.32.83-.59,1.59-.23-.3-.61-.46-.91-.59-1.22-.14-.34.09-.57.27-.81.19-.25.44-.26.68-.1,1.08.72,2.39,1.21,2.73,2.68.99-1.37,1.73-2.87,2.31-4.45.14-.64-.4-.92-.75-1.23-.64-.56-1.42-.9-2.06-1.5-.64-.6-1.86-.11-2.19.77-.23.61-.56,1.14-.99,1.62-.8,1.28-1.43,2.61-1.27,4.18.06.13.15.23.27.31Z"/>
        <path class="cls-46" d="M46.58,86.53c-2.52-3.47-5.31-6.71-8.24-9.84-.37-.13-.51.17-.45.38.28,1.01-.01,2.2.91,3.02,2.34,2.77,4.68,5.53,7.02,8.3,1.21-.23.93-1.07.77-1.86Z"/>
        <path class="cls-40" d="M8.44,56.31c.71,1.03,1.6,1.88,2.64,2.58.25.21.46.14.66-.08.17-.27.19-.57.1-.85-.22-.7-.04-1.14.73-1.26.77-.12.48-1.13,1.13-1.37.2-.43-.04-.74-.3-1.02-1.2-1.32-2.31-2.73-3.47-4.08-.39-.45-.79-.93-1.5-.72-.1.08-.18.17-.24.29-.26.93-.23,1.91-.57,2.84-.28.77.06,1.52.39,2.23.22.47.27.99.45,1.47Z"/>
        <path class="cls-1" d="M11.58,58.63c-.17.09-.34.17-.51.26.69.93,1.81,1.36,2.71,2.26-.82.04-1.51.07-2.21.1,0,.08,0,.16.01.23,1.47.55,3.11.5,4.51,1.29.29.14.43.45.72.59.66.39,1.42.57,2.02,1.08.86,2.05,2.72,2.85,4.57,3.66.4.18.83.24,1.23-.03.86-.98-.03-1.52-.54-2.15-2.08-1.71-4.14-3.45-6.47-4.83-1.08-.32-1.77-1.18-2.56-1.89-1.16-1.03-2.36-1.22-3.48-.57Z"/>
        <path class="cls-107" d="M70.84,49.32c.7-2.2,1.48-4.37,2.65-6.36.35-.59.29-1.13.02-1.69-1.07.44-1.68,1.68-2.98,1.73-.25.06-.45.2-.63.37-.08.09-.14.2-.2.31-.65.78-.8,1.86-1.88,2.43-.55.29-.78,1.19-.11,2.02.63.79,1,1.79,1.78,2.5.25.23.43.63.82.49.34-.12.13-.54.25-.81.14-.31.16-.67.28-.99Z"/>
        <path class="cls-51" d="M82.49,20.27c.3-.71.98-1.2,1.04-2.11.02-.25,1.09-.59,1.76.01.85.77,1.79,1.43,2.7,2.14.2-.51.39-1.03.59-1.54-.74-2.08-.49-2.98,1.18-4.17.02-.34.04-.68.05-1.02-.54-.13-1.17-.14-1.6-.43-.43-.3-2.24-.59-.31-1.48.08-.04.16-.23.14-.31-.07-.24-.27-.29-.51-.23-.54.13-1.08.25-1.62.37-.16.12-.22.28-.23.47.07.42.33.77.46,1.16.06.11.13.2.22.28.54.61-.03,1.06-.27,1.49-.37.64-.73,1.26-.66,1.87,0-.7-.54-1.09-1.29-1.25-.8-.17-.88.46-1.04,1-.07.25-.31.4-.46.61-.36.54-.47,1.16-.66,1.77-.2.63-.03,1.06.52,1.38Z"/>
        <path class="cls-106" d="M70.84,49.32c-.41.38-.42.91-.56,1.45-.6-1.04-1.63-1.64-2.12-2.81-.31-.73-.27-1.27.02-1.69.4-.57.85.3,1.47.25-.38-.99-.32-1.9.44-2.66-.97-.69-1.37.6-2.15.61-.48.3-.98.41-1.56.27-.37-.09-.94-.32-.97.45.43.74.77,1.56,1.32,2.2,1.62,1.9,1.94,4.01,1.38,6.37-.14.57-.09,1.19-.12,1.79.94.18,1.48-.55,2.16-.96l.68-5.26Z"/>
        <path class="cls-142" d="M67.27,1.66c-.62.19-.14.41-.02.62.19.34.89.55.52.99-.32.39-.73-.16-1.13-.3-.23.49.26.68.36,1.01.38.83,0,1.75.31,2.6.29.54.48,1.11.61,1.7.18.79.63,1.19,1.44,1.21.13.07.43-.26.41.19-.04.63.36,1.02.82,1.36.35.26.73.51,1.18.35.56-.21.48-.72.43-1.19-1.06-3.18-2.4-6.2-4.93-8.53Z"/>
        <path class="cls-121" d="M46.58,86.53c-.35.58-.24,1.36-.77,1.86,1.69,2.34,3.37,4.68,5.06,7.03.33.27.62.64,1.06.69.67.07,1.12-.14.83-.95-1.86-3.02-3.88-5.92-6.18-8.63Z"/>
        <path class="cls-64" d="M29.2,73.91c.77.04,1.55.08,2.32.12.76-.49,1.35-2.25,1.08-3.23-.03-.12-.21-.28-.18-.33.77-1.15-.17-2.06-.38-3.09-.29-1.44-.44-1.58-1.78-.86-.11.06-.22.13-.32.21-.42,1.68-1.42,3.06-2.35,4.47-.17.39.02.71.3.88.7.43.97,1.14,1.29,1.82Z"/>
        <path class="cls-58" d="M52.24,11.24c.48-.24.41-.43.09-.84-.44-.57-1.1-1.12-.86-2.01.13-.13.1-.28.02-.42-.11-.11-.21-.23-.22-.39-.15-.19-.36-.24-.59-.2-1.52-.08-2.15,1.27-3.16,1.99-.49.34-.89.67-1.49.33-.54.79-.6,1.68-.54,2.59.18.22,0,.48.09.71.09.83.05,1.71.97,2.16.33.11.86.2.87-.16.01-.9.85-1.55.7-2.39.41.55.84,1.25,1.72,1.42.58-.12,1.17-.22.96-1.05-.29-.53-1.24-.95-.27-1.69.39-.37.35-.83.28-1.29.46.43.44,1.43,1.43,1.26Z"/>
        <path class="cls-130" d="M5.89,67.19c-.35.43-.75.81-1,1.33-.21.43-.16.72.11,1.06.35.43.68,1.89.6,2.54.39.32.84.44,1.33.47.37-.33.69-.29,1.12,0,.76.52,1.43.41,1.83-.51,0-.2-.07-.36-.21-.49-.09-.08-.27-.23-.21-.28q1.54-1.13,1.1-2.96c-.41-.42-.74-.97-1.46-.86-.12.05-.22.12-.3.22-.2.57-.9.79-.96,1.46.02-.61.61-.83.85-1.29.28-1.07-.36-1.3-1.22-1.34-.58-.11-1.11-.03-1.51.45-.03.06-.05.13-.08.19Z"/>
        <path class="cls-5" d="M85.39,7.88c.34-.05.2.31.69.62-.72-1.38-.05-2.75-1.04-3.86-.2-.22-1.15-1.21.35-1.17-2.31-1.11-4.32-.38-6.21,1.03.54,1.06,2.2,1.31,1.85,2.77.64.21,0-1.28,1-.38.31.28.63-.41.86-.76.17-.27.15-.8.61-.71.47.09.44.58.41.96-.02.27-.01.51.19.72.54.07.63.89,1.29.78Z"/>
        <path class="cls-50" d="M46.8,14.86c-.75-.49-.68-1.39-1.03-2.08-.78.42-.28,1.07-.29,1.63.22,1.39.34,2.8.96,4.09.7.32,1.39.67,2.1.95.63.24.28.54.14.89-.33.81-.32.82.52.94.23.03.28.14.45,1.01,1.35-1.11.15-2.66.77-3.81.17-.19.34-.18.51,0,.39.44.74.78.91-.16.04-.22.26-.41.39-.62-.19-.53-.53-.98-.93-1.36-.78-.74-1.56-.59-2.02.38-.13.28-.18.58-.56.58-.29,0-.59-.22-.55-.43.26-1.2-.84-1.42-1.39-2.03Z"/>
        <path class="cls-123" d="M75.29,12.27c-.09,0-.17,0-.26,0-.41-.15-.76-.08-1.05.24-.12.42-.25.85-.37,1.29-.49-.23-.22-.83-.61-1.06-.12.03-.23.08-.32.16-.23.32-.53.55-.89.73-.43.21-.68.62-.51,1.07.36.96.51,1.97.88,2.95.46,1.23.89,2.55.73,3.95-.07.6-.23,1.37.81,1.38.61-.42.56-1.14.68-1.73.42-2.04.69-4.12,1.14-6.16.21-.93.46-1.94-.21-2.83Z"/>
        <path class="cls-68" d="M15.98,47.01c-.21.67-.59,1.24-1.03,1.78-.27.29-.14.76.08.75,1.33-.05,1.27,1.89,2.6,1.76.27-.03.51-.2.58-.45.16-.57.68-.73,1.06-1.06.58-1.43-.51-2.57-.69-3.87-.06-.43-.3-.87-.53-1.28-.76-.92-.98-2.06-1.29-3.16-.13-.45-.27-1.06-.95-.47-.4,2.2.37,4.24.84,6.39-.24-.13-.45-.25-.67-.37Z"/>
        <path class="cls-39" d="M52.75,95.16c-.46,1.35-1.25.22-1.89.26,1.32,2.06,2.64,4.13,3.97,6.19.47-.22.68.18.94.41.4.35.82.56,1.36.36-1.22-2.55-2.73-4.93-4.38-7.23Z"/>
        <path class="cls-93" d="M5.12,42.83c-1.22.09-2.07.59-2.11,1.95-.12.38-.22.78.15,1.07.51.39.58.94.56,1.5-.05,1.34,1.04,1.55,1.92,1.93.79.34,1.52.19,2.01-.61.25-.99-.33-1.66-.87-2.38-.42-.56-1.22-1-.82-1.92.06-.11.09-.22.1-.34,0-.64-.61-.82-.94-1.2Z"/>
        <path class="cls-33" d="M21.01,35.79c-.63.71-.07.93.48.98.74.07.95.43.9,1.11-.04.57.08,1.09.56,1.51.46.41.64.93.19,1.48-.43.53.09.78.33,1.07.36.44.4-.02.6-.22.4-.4.44.11.57.31.63.98,1.25,1.97,1.91,3.02.49-.5.24-1.05.36-1.52-.21-.76-.35-1.55-.82-2.22-1.07-1.21-1.54-2.85-2.78-3.94-.67-.67-1.45-1.17-2.29-1.58Z"/>
        <path class="cls-101" d="M7.45,48.53c-.69.4-3.14.08-3.15-.48-.01-.69-.29-1.4-.06-2.06.26-.74.04-.9-.61-.62-.71.31-.51-.28-.62-.58-.58,1.64.27,3.06.71,4.54.55.35.66.96.89,1.5.09.18.18.36.26.55.97-.26,2-.12,2.96-.48.34-.28.4-.73.64-1.08,0-.08,0-.16,0-.24.05-.31-.06-.56-.27-.78-.21-.19-.4-.45-.74-.26Z"/>
        <path class="cls-9" d="M7.16,45.95c.53.03.82.41,1.14.76.84.91,1.05.87,1.55-.28.49-1.11.36-2.15-.35-3.12-1.29-.47-2.58-.89-3.98-.53.15.78.91.67,1.41,1.02-.43-.13-.8-.09-1.03.31l-.04.04c-.24,1.09.23,1.66,1.3,1.8Z"/>
        <path class="cls-112" d="M70.16,54.58c-.32-.17-1.55.19-1.86.56-.11.13-.2.27-.3.4-.14.5-.29,1.01-.19,1.54,1.12,1,1.53,2.32,1.18,3.68-.22.87.02,1.21.65,1.55.31-2.57.52-5.15.53-7.74Z"/>
        <path class="cls-31" d="M30.23,66.91c.31.17.46-.1.66-.24.22-.15.46-.32.69-.1.27.25.03.41-.16.61-.75.8.35.95.58,1.36.26.47,1.06.75-.07,1.09-.56.17-.31.52-.1.79.56.7.77,1.34-.16,1.91-.35.22-.28.5,0,.73.49.41-.04.66-.13.99.43.05.87.1,1.3.15.59-.45.53-1.07.67-1.72.38-1.74-.42-3.19-.68-4.76-.55-1.22-1.05-2.47-2.04-3.42-.46.04-.65.35-.79.73.03.64-.19,1.32.24,1.91Z"/>
        <path class="cls-76" d="M60.27,37.39c.79-1.04.74-1.74-.3-2.42-.58-.38-1.07-.83-1.54-1.32-.24-.25-.78-.46-.11-.83.07-.04.12-.1.18-.15-1.48-.05-.54-2.08-1.85-2.27h0c-.23.57-.99.88-.81,1.65,1.4,1.84,2.8,3.69,4.44,5.34Z"/>
        <path class="cls-83" d="M36.45,74.41c-.57-1.05-1.15-2.09-1.72-3.14-.85-.23-1.18.38-1.16.97.03.9-.26,1.86.3,2.7.67.7,1.34,1.4,2.02,2.11,1.05-.21,1.34-.59.94-1.47-.18-.39-.16-.81-.37-1.17Z"/>
        <path class="cls-145" d="M66.69,129.05c-.57-.1-.77.13-.71.7.04.37,0,.75-.01,1.13.06.06.08.13.07.2,0-.08-.02-.14-.07-.2-.36-.21-.69-.54-1.17-.34-.34.14-.82-.02-1.03.39-.25.49.25.64.48.92.15.19.24.43.35.64.43-.09.01-.52.39-.63.17.16.35.4.59.53.39.22.9.53.67.93-.32.57-.7-.08-1.05-.2-.2-.07-.43-.2-.57.03-.13.22.05.39.19.56.53.63,1.44.49,1.95,1.1.49-.44-.18-.99.27-1.36.05-1.48-.18-2.94-.34-4.4Z"/>
        <path class="cls-14" d="M9.51,71.84c.09.09.17.17.26.26-.1.73.4,1.01.95,1.26.8.21,1.64.26,2.4.59.17.05.34.1.51.14.98-.07,1.95-.01,2.9.3.17.01.33.02.5.03.21-.18.64-.09.66-.52-.11-.66-.89-.79-1.08-1.39-.29-.2-.6-.11-.91-.08-.18,0-.37-.02-.55.02-1.15-.32-2.34-.55-3.44-1.01-.57-.24-1.14-.36-1.73-.34-.46.01-.76.2-.46.73Z"/>
        <path class="cls-19" d="M46.03,9.68c.28,1.33.35,1.35,1.35.51,1.11-.94,2.21-1.88,3.31-2.82-2.31-.69-3.74.02-4.66,2.31Z"/>
        <path class="cls-144" d="M33.86,74.93c.5-.6.35-1.47.23-1.95-.23-.88.04-1.29.64-1.71-.66-1.18-1.1-2.48-1.91-3.58.04,1.06-.35,2.17.33,3.16.18.27.22.44-.09.61-.58.32-.53.75-.11,1.13.67.61-.69,1.02-.12,1.59.35.25.69.5,1.04.76Z"/>
        <path class="cls-100" d="M72.94,13.04c.02-.1.03-.2.05-.3-.16-.89-.3-1.78-.8-2.56-.28.23-.09,1.06-.74.76-.87-.39-1.66-.96-1.23-2.15-.49-.18-.52.45-.88.36-.33.39-.1.81-.04,1.21.14.96-.02,1.84-.6,2.63-.02.12,0,.24.03.36.29.38.75.59,1.13.41.99-.48,2.1-.34,3.09-.73Z"/>
        <path class="cls-136" d="M36.45,74.41c-.04.38-.3.75-.07,1.13.44.71-.02,1.11-.5,1.5.93,1.05,1.81,2.16,2.91,3.05-.15-1.13-.09-2.29-.45-3.4-.63-.76-1.26-1.52-1.88-2.29Z"/>
        <path class="cls-34" d="M58.46,13.26c-.62,1.19.24,2.27.25,3.41-.1.23-.13.47-.08.71.05.19.16.34.33.43.57.15.75-.33,1.05-.63.56-.88.38-1.72,0-2.63-.29-.71-.36-1.52-.52-2.29-.26-.2-.36.03-.5.18-.13.35.18.77-.15,1.07-.03.02-.25-.17-.39-.26Z"/>
        <path class="cls-111" d="M16.5,72.62c-.18.85.23,1.22,1.04,1.27.28.41-.28.33-.32.56,1.78.33,3.55.25,5.31-.14.18-.06.31-.19.39-.37.11-.55-.21-.87-.67-.91-1.71-.15-3.38-.53-5.07-.72-.26-.03-.51.06-.67.31Z"/>
        <path class="cls-57" d="M8.46,49.81c-.26.26-.51.53-.77.79-.06.07-.08.18-.14.21-1.86.94-1.15,2.33-.67,3.69.33.77.92,1.31,1.55,1.82.25-.38.43-.92.23-1.21-1.2-1.74-.11-3.53-.2-5.29Z"/>
        <path class="cls-139" d="M67.25,143.83c-.33,1.56.17,2.94.94,4.5.07-.53.11-.85.15-1.17-.09-1.99-.25-3.97-.58-5.93-.22-.4-.09-.84-.11-1.25-.02-.35-.02-.76-.44-.81-.56-.06-.48.46-.56.81-.04.17-.03.34.08.48h0c.63,1.05-.29,2.34.51,3.37Z"/>
        <path class="cls-12" d="M59.18,5.96c.27.42.17.88.21,1.34.03.34.08,1.17.88.58.79-.36.95-1.02.91-1.8-.03-.47,0-.94,0-1.41-.03-.77.39-1.73-.84-1.98-.68.99-1.06,2.09-1.16,3.28Z"/>
        <path class="cls-72" d="M6.89,54.49c.02-.42.04-.84.07-1.26.05-.67-.61-1.63.77-1.8.23-.03-.02-.54-.03-.83-.2.05-.47.21-.59.13-1-.64-1.75-.47-2.24.63.34,1.26,1.18,2.19,2.02,3.13Z"/>
        <path class="cls-90" d="M63.38,37.91c-.71-.21-1.06.84-1.81.52-.22-.08-.29.01-.26.22.69.97,1.39,1.94,2.08,2.91.22.06.37-.05.5-.21.13-.42.38-.76.67-1.08.44-.48.63-1.05.31-1.66-.31-.59-.8-.88-1.5-.7Z"/>
        <path class="cls-70" d="M89.76,14.6c-.49.2-.89,0-1.28-.28-1.14,2.37-1.31,3.87.1,4.44.7-1.3.79-2.78,1.18-4.17Z"/>
        <path class="cls-79" d="M15.81,40.99c.59-.16.44.29.54.6.33,1.04.36,2.2,1.19,3.05.75-.4.15-.92.13-1.31.2.37.32.97,1.04.51.48-1.44-.22-2.78-.43-4.15-.14-.87-1.03-.45-1.64-.33-.26.04-.43.26-.68.33-.36.4-.19.85-.15,1.3Z"/>
        <path class="cls-59" d="M29.2,73.91c.62-.65.47-1.18-.23-1.65-.45-.3-.89-.62-1.34-.94-.69-.37-.96.12-1.09.63-.11.4-.19.83-.21,1.26.01.36.21.59.51.74.79-.01,1.57-.03,2.36-.04Z"/>
        <path class="cls-75" d="M83.88,27.33c-.32-.14-.26-.85-.83-.59-.42.19-.33.53-.16.88.05.1,0,.25,0,.37-1.36-.13-1.26,1.93-2.9,1.74,1.18.46,1.07.84.24,1.32-.43.25-.23.78-.26,1.2,1.44-1.54,2.81-3.13,3.92-4.93Z"/>
        <path class="cls-38" d="M63.69,41.24c-.1.11-.2.21-.3.32.45.88.83,1.81,1.52,2.54.33.46.93.71.97.02.04-.94.47-.29.71-.32.17-.02.33-.04.48-.14.09-.1.14-.22.16-.36,0-.14-.02-.27-.07-.4-.45-.64-1.01-1.17-1.63-1.62-.57-.42-1.21-.69-1.84-.04Z"/>
        <path class="cls-17" d="M15.96,39.7c.17.2.36.23.55.03.51-.68,1.54-.12,2.02-.87.01-.06.03-.12.04-.17-.11-.22-.37-.53-.3-.66.67-1.2-.2-1.27-.99-1.41-1.11.74-1.15,1.94-1.33,3.08Z"/>
        <path class="cls-81" d="M60.34,2.68c.52.61.43,1.36.46,2.08.42.48-.27,1.3.5,1.67.04-.01.1,0,.12-.04.27-.45.63-.72,1.19-.6,0-.92-.19-1.76-.79-2.51-.44-.55-.53-1.25-.55-1.94-.41.38-.77.79-.93,1.34Z"/>
        <path class="cls-133" d="M66.99,43.63c-.42-.19-.85-.38-1.27-.57-.6.09.61,1.58-.81,1.04.04.43.21.79.52,1.08.17-.16.42-.26.57-.1.78.84,1.41.37,2.04-.19.22-.9-.34-1.15-1.05-1.27Z"/>
        <path class="cls-120" d="M68.04,78.31c-.3.23.47-.44-.04-.31-.47-.39-.67.35-.75-.07-.04-.21-.04-.46-.28-.53-.28-.08-.28.18-.4.36-.5.78-.92,1.96-.31,2.36.57.38,1.59-.47,2.29-1.03.25-.45.25-.91.06-1.37-.36.04-.37.41-.57.6Z"/>
        <path class="cls-134" d="M68.04,78.31c.59.18.49-.29.57-.6.23-.91.32-1.84.24-2.78-.66.36-1.54.58-1.91,1.13-.22.34.77.96.83,1.68.02.2.17.38.27.57Z"/>
        <path class="cls-65" d="M30.21,65.11c.19-.28.38-.56.57-.84-.17-1.45-.34-2.9-.51-4.35-.03.18-.06.36-.1.54-.63,1.02-.78,2.26-1.47,3.25-.04.13-.05.27-.04.41.16.55.29,1.12.99,1.24.22,0,.42-.05.56-.24Z"/>
        <path class="cls-135" d="M75.77,8.3c0,.13.01.26.03.38.06.35-.08.88.47.89.6,0,.27-.6.44-.9.43-.1.52.37.83.47.3.1.36-.15.42-.34.06-.19.44-.39,0-.6-.69-.34-.63-1.12-.97-1.68-.57.48-.93,1.11-1.23,1.77Z"/>
        <path class="cls-85" d="M10.78,73.15c-.34-.35-.68-.7-1.02-1.06-.77.37-1.52.72-1.9-.49-.07-.23-.25-.43-.59-.2-.46.31-.59.67-.35,1.16,1.05.42,2.12.78,3.27.84.26.06.59.27.59-.27Z"/>
        <path class="cls-44" d="M51.21,8.13c.09.09.17.17.26.26.35.63,1.58.41,1.47,1.5.59-.16,1.09.06,1.63.29.2.08.24-.46.26-.74-.76-.79-1.78-1.13-2.73-1.59-.33-.01-.79-.42-.88.29Z"/>
        <path class="cls-28" d="M23.3,37.37c-.35.55.26.72.42,1.06.21.44,1.09.66.45,1.4-.04.05.16.47.29.5.7.15,1.05.65,1.37,1.21,0,.01.1,0,.12-.02.05-.07.08-.14.12-.22-.57-1.56-1.13-3.14-2.78-3.94Z"/>
        <path class="cls-43" d="M26.84,73.95c-.07-.28-.14-.55-.21-.83-.07-1.38-.37-1.52-1.86-.86-.16.1-.27.23-.34.39-.03.19-.13.31-.35.31-.55.26-1.03.54-.39,1.19,1.06.08,2.12.09,3.15-.19Z"/>
        <path class="cls-45" d="M66.74,140.46c.12-.35.24-.69.39-1.15.63.61.16,1.42.64,1.93.07-1.23-.2-2.43-.31-3.65-.17-.43.06-.9-.17-1.32-.02-.33-.04-.65-.06-.98-.35.72-.65,1.44-.34,2.28.09.25.08.78-.05.84-1.28.65-.48,1.35-.1,2.05Z"/>
        <path class="cls-32" d="M28.97,51.86c-.96.13-.42.74-.42,1.21-.01,1.32-.06,2.63,1.26,3.46-.11-1.59-.47-3.13-.84-4.67Z"/>
        <path class="cls-24" d="M5.9,44.11c.96-.26,1.04.64,1.57,1.24.51-.88.53-1.53-.4-1.98-.49-.24-1.03-.39-1.54-.59-.14.02-.27.03-.41.05-.24.73.66.77.79,1.28Z"/>
        <path class="cls-126" d="M70.62,43.36c1.31-.22,2.32-.86,2.89-2.1-.03-.33-.23-.48-.54-.53-.43-.16-.65.14-.89.4-.09.08-.17.16-.25.24-.22.27-.47.51-.72.75-.21.39-.81.63-.48,1.23Z"/>
        <path class="cls-137" d="M72.18,41.53c.26-.26.53-.53.79-.79-.57-.73.4-.82.52-1.26-.42-.15-1.09.05-1.04-.74-.9-.18-.85.57-1.05,1.07-.07.72-.18,1.47.78,1.74Z"/>
        <path class="cls-52" d="M23.69,74.15c-.14-.53.2-.79.59-1.02.15-.02.24-.11.27-.25.1-.1.19-.2.29-.29.39-.24.59-.54.35-1-.09-.1-.2-.17-.34-.2-1.37.27-1.88,1.27-2.09,2.51-.07.14-.15.29-.22.43.39-.06.78-.11,1.16-.17Z"/>
        <path class="cls-74" d="M73.98,12.52c.37,0,.75.04,1.05-.24-.28-.87.22-1.75-.03-2.62-.47.91-.95,1.82-1.03,2.87Z"/>
        <path class="cls-11" d="M89.52,12.01c.1.08.2.16.29.24.04-1.7.02-3.38-.92-4.9-.18.34-.37.7-.02,1.04.51.52.4,1.16.42,1.79.32.58-.13,1.25.23,1.83Z"/>
        <path class="cls-110" d="M62.09.62c1.24.2,2.47-.03,3.71-.05-1.24-.62-2.48-.92-3.71.05Z"/>
        <path class="cls-7" d="M66.75,67.95c.84-1.06.8-2.2.27-3.37-.09,1.12-.42,2.23-.27,3.37Z"/>
        <path class="cls-50" d="M55.83,32.05c.53-.42,1.18-.79.81-1.65-.5.25-1.01.51-1.51.76.11.39.38.65.7.88Z"/>
        <path class="cls-113" d="M58.8,10.71c1.15-.65,1.15-1-.03-1.8-.13.6-.07,1.2.03,1.8Z"/>
        <path class="cls-119" d="M16.53,74.4c-.9-.71-1.88-.65-2.9-.3.96.17,1.91.39,2.9.3Z"/>
        <path class="cls-119" d="M10.78,73.15c-.2.09-.39.18-.59.27.94.35,1.91.54,2.92.53-.62-.73-1.52-.63-2.33-.8Z"/>
        <path class="cls-53" d="M65.98,149.23c-.04-.38-.03-.78-.13-1.14-.19-.66-.55-.5-.92-.13.22.53.52.99,1.05,1.27Z"/>
        <path class="cls-131" d="M61.31,38.65c.09-.07.18-.15.26-.22.1-.26.34-.57,0-.78-.37-.22-.61.08-.82.34.19.22.38.44.57.66Z"/>
        <path class="cls-124" d="M66.47,108.35c-.53.59-.66,1.22-.21,1.91.37-.6.18-1.27.21-1.91Z"/>
        <path class="cls-72" d="M4.6,50.82c.24-.82-.22-1.21-.89-1.5.2.55.35,1.14.89,1.5Z"/>
        <path class="cls-49" d="M77.96,34.58c-.66,0-1.28.04-.89.99.3-.33.59-.66.89-.99Z"/>
        <path class="cls-19" d="M45.48,14.42c.08-.55-.1-1.14.29-1.63-.09-.17-.19-.34-.28-.51-.2.71-.28,1.43-.01,2.15Z"/>
        <path class="cls-118" d="M64.64,89.19c.53-.74.21-1.58.27-2.38-.34.76-.32,1.57-.27,2.38Z"/>
        <path class="cls-73" d="M59.01,12.46c.17-.06.33-.12.5-.18.06-.2.16-.42-.04-.59-.21-.18-.39-.05-.54.12.03.21.05.43.08.64Z"/>
        <path class="cls-119" d="M17.22,74.45c.27-.12.68.16.8-.28.01-.05-.31-.18-.47-.27-.17.18-.34.36-.51.53,0,0,.09.05.09.05l.1-.02Z"/>
        <path class="cls-77" d="M51.21,8.13c.25-.24.56-.26.88-.29-.24-.21-.51-.31-.82-.27-.21.16-.27.34-.06.55Z"/>
        <path class="cls-10" d="M67.28,136.27c-.01.45-.1.91.17,1.32.05-.45.04-.9-.17-1.32Z"/>
        <path class="cls-45" d="M67.25,143.83c.1-1.16.17-2.33-.51-3.37-.09.72-.24,1.44-.26,2.16-.01.52.15,1.04.77,1.21Z"/>
        <path class="cls-78" d="M82.49,20.27c-.3-1.04.17-1.92.54-2.83.4-.85.33-1.85,1.2-2.57.49-.4.07-1.3.01-1.97.08-1.04.29-2.05.54-3.06.01-.14,0-.28-.04-.42-.2-.43.1-1.3-.9-1.03-.45.62-.51,1.39-.8,2.07-.08.09-.16.18-.24.27-.71,1.08-.41,2.42-.9,3.56-.16.33-.26.68-.3,1.04.08.57-.11,1.07-.44,1.53-.03.12-.06.25-.07.37-.82,3.7-2.43,7.07-4.2,10.38-.3.57-.41,1.22-.81,1.74-.13.3-.23.61-.27.94-.02.12-.04.25-.02.38.07.38-.18.94.41,1.06.52.11.73-.35.87-.75.21-.58.64-.97,1.04-1.4,1.32-1.26,1.74-3.01,2.46-4.59.12-.27.24-.55.4-.8.46-1.32.54-2.78,1.5-3.91Z"/>
        <path class="cls-56" d="M81.49,17.2c.02-.08.03-.17.04-.26.2-.15-.38-.61.29-.64.19,0-.07-.65.22-.93.3-.3.22-.68.24-1.04-.2-.88-.56-1.57-1.65-1.42-.09.07-.17.14-.23.24-.09.15.06-.04-.04.1-.01-.03.02-.05.03-.08.06-.09.12-.18.17-.26-.03-.05-.06-.09-.09-.13-.38-.02-.86-.39-1.05.3-.08.31-.27.36-.59.27-.74-.23-1.15.32-1.36.84-.25.6.41.6.77.78.43.21.61.49.19.88-.36.33-.25,1.76-1.32.57-.11-.12-.74,0-.37.64.28.49-.47.39-.67.65-.07.1-.1.21-.07.34.18.36.41.65.25,1.14-.19.58,0,1.15.53,1.55.75.29,1.19-.13,1.39-.75.29-.94.81-1.33,1.8-1.22,1.11.12.94-1.11,1.52-1.56Z"/>
        <path class="cls-47" d="M75.29,12.27c-.52,3.3-1.03,6.61-1.55,9.91-.04.25-.16.48-.25.72-.82.62-.45,1.57-.61,2.37-.13.63-.23,1.25-.46,1.84-.07.4-.09.79.02,1.18.37.61.73.39,1.1,0,.42-.45.56-1.03.78-1.58.1-.29.35-.5.42-.8.27-1.98.53-3.97.52-5.97.92-1.02.36-2.39.82-3.52.51-1.83.42-3.68.14-5.57-.74.12-.74.84-.92,1.42Z"/>
        <path class="cls-2" d="M83.04,10.72c.01-.08.01-.17.01-.25-.68.02-1.36-.02-2-.28-.61-.25-1.05.11-.91.6.21.67,0,1.38.33,2.01h0c.54.23,1.17.6,1.63.5.74-.15.15-1.05.46-1.53.21-.33.25-.72.47-1.04Z"/>
        <path class="cls-105" d="M83.85,8.4c.69.22.46.81.5,1.28.52.06.55-.31.49-.65-.09-.49.24-.68.54-.9,0-.08,0-.17,0-.25-.08-.19-.18-.37-.23-.57-.1-.34.16-.89-.27-1.01-.57-.16-.46.59-.78.8,0,.45-1.11.68-.25,1.3Z"/>
        <path class="cls-3" d="M76.07,16.42c-.8.98-.37,2.43-1.29,3.36.33.3.69.38,1.09.14.43-.61.64-1.25.2-1.95,0-.09,0-.17,0-.26,0-.43,0-.86,0-1.29Z"/>
        <path class="cls-13" d="M52.24,11.24c-.61-.48-.69-1.26-1.03-1.89-.22-.41-.35-1.02-.96-.74-.48.22-.36.75-.11,1.13.3.47.3.98.29,1.5-.33.36-.14.71.03,1.06.54.97.96,1.99,1.12,3.11.09.91.8,1.32,1.45,1.79,0,.09,0,.17,0,.26.61,1.38.57,3.04,1.79,4.15.09.17.19.34.28.51,1.16,1.8,2.23,3.64,2.86,5.7.26.3.32.7.5,1.04h0c.3.41.69.74,1.02,1.13.29.35.59.26.81-.12.35-1.63-.69-2.93-1.07-4.39-.78-.71-.98-1.73-1.36-2.66-.04-.11-.08-.22-.12-.32-.14-.24-.28-.49-.37-.75-.01-.12-.04-.23-.07-.34-.24-.77-.79-1.44-.78-2.3-1.32-1.83-1.81-4.1-3.16-5.91-.58-.32-.92-.82-1.09-1.45,0-.17,0-.34-.01-.51Z"/>
        <path class="cls-19" d="M53.02,17.19c.1-.86-.98-1.04-1.04-1.81-.36-.95-1.03-1.5-2.07-1.55-.6-.85-1.63-1.33-2.09-2.69-.14.68-.62.78-.22,1.49.26.45-.5,1.47-.8,2.24.61.84.7,1.9,1.16,2.8.24.46,1.97.31,2.2-.14.09-.18.07-.34-.09-.45-.26-.18-.78-.31-.21-.67.39-.25.87-.18,1.12.26.3.52.47,1.14,1.25,1.06.24-.2.42-.48.77-.52Z"/>
        <path class="cls-50" d="M54.81,21.6c-.24-1.54-1.04-2.84-1.79-4.15.13,1.14.21,2.28.41,3.41.13.74.59,1.12,1.39.74Z"/>
        <path class="cls-19" d="M50.95,18.49c.14-.12.43-.27.16-.42-.36-.21-.58.06-.68.42.17,0,.34,0,.51,0Z"/>
        <path class="cls-78" d="M71.9,39.94c.02-.48.04-.96.56-1.22,0,0,.02-.02.02-.02.7-.32.87-1.04,1.24-1.62.08-.17.15-.34.23-.5.46-.5,1.21-.84.99-1.73-.26-.35-.65-.42-1.06-.47-.94.26-1.36,1.1-1.67,1.85-.76,1.81-2.05,3.38-2.47,5.35-.04.56-.53,1.31.25,1.57.72.24.88-.62,1.25-1.05.53-.62.09-1.54.67-2.15Z"/>
        <path class="cls-66" d="M80.99,24.19c-1.23,1.26-1.74,2.97-2.65,4.42-.16.25-.31.5-.46.75-.52.49-.83,1.07-.83,1.8.1.09.21.1.33.02.47-.43,1.29-.55,1.19-1.48-.03-.3.34-.32.59-.34,1.14-.09,1.39-.67,1.16-1.74-.23-1.11.42-2.12.68-3.17,0-.09,0-.18,0-.26Z"/>
        <path class="cls-77" d="M77.38,31.18c-.08,0-.16,0-.24,0-.92.78-1.56,1.75-2.1,2.81-.04.2-.01.39.08.58.18.23.39.36.69.23.05-.25.06-.51.16-.74.66-1.46,1.03-1.62,2.53-1.11-.03-.83-.84-1.14-1.13-1.77Z"/>
        <path class="cls-141" d="M75.81,34.8l-.51-.26c-.3-.17-.39.03-.46.26-.21.64-.89,1.03-.9,1.77,1.1.18,1.45-.94,2.23-1.33.08-.04-.17-.34-.35-.45Z"/>
        <path class="cls-137" d="M73.71,37.08c-.58.41-.87,1.05-1.24,1.62,1.07-.04,1.09-.88,1.24-1.62Z"/>
        <path class="cls-15" d="M60.02,29.88c-.73-.03-.73-1.16-1.56-1.03.65.97.24,2.3,1.15,3.21.86.87,1.35,2.01,1.89,3.1.31.62.72,1.19,1.32,1.56.49.3.58.71.56,1.2.24.17.48.34.73.51.64.43.74.89.11,1.43-.42.36-.88.73-.53,1.39.82-.06,1.46.28,1.98.9.36.42.81.73,1.34.93.94-.36.76-1.28,1-1.99-.13-.38-.33-.7-.65-.95-.62-.14-1.06-.29-.88-1.16.19-.91.02-1.86-.2-2.77-.11-.45-.21-.94-.83-.96-.16.02-.41.08-.43-.13-.14-1.75-1.23-3.23-1.38-5-.09-1.04-.43-2.1-1.49-2.69-.41.02-.7.27-.99.52-.42.67-.17,1.33.08,1.97.45,1.16.91,2.31,1.26,3.4-.35-.81-.8-1.68-1.26-2.54-.25-.47-.5-1.03-1.22-.89Z"/>
        <path class="cls-15" d="M58.46,28.85c.01-.43-.1-.81-.5-1.04.04.41.19.76.5,1.04Z"/>
        <path class="cls-109" d="M24.01,47.75c-.18-.51-.35-1.03-.53-1.54h0c-.37-.36-.09-.97-.5-1.31-.3-.47-.61-.57-.97-.06-.14,1.18.31,2.27.47,3.41,1.38,2.61,1.98,5.44,2.45,8.32.06.34.09.68.05,1.02.03.55.17,1.06.56,1.47.58.42,1.17.7,1.8.08.01-.17.03-.34.04-.5.04-.23-.1-.38-.24-.52-.71-1.74-.94-3.59-1.31-5.41h0c-.59-.82-.77-1.77-.91-2.73-.11-.82-.35-1.57-.9-2.21Z"/>
        <path class="cls-87" d="M27.33,59.13c-.5-.08-1-.17-1.5-.25-.5.51-.28,1.07.04,1.51.61.85.89,1.81,1.15,2.8.18.69.48,1.38,1.33,1.56.42-.04.57-.3.58-.69,0-.09,0-.18,0-.27.41-.71.29-1.24-.51-1.55-.59-.96-.63-2.11-1.1-3.11Z"/>
        <path class="cls-29" d="M28.42,62.24c.05.56.58.96.51,1.55,1.05-.88,1.51-1.97,1.23-3.33-.61.22-1.18.64-1.93.1.07.68.13,1.18.18,1.68Z"/>
        <path class="cls-62" d="M25.81,52.69c.25-.21.67-.31.54-.76-.07-.26.22-.63-.22-.77-.12-.04-.28-.09-.36-.04-.34.22-.12.53-.08.81.04.25.07.51.11.76,0,0,0,0,0,0Z"/>
        <path class="cls-48" d="M27.13,58.11c.08.17.16.35.24.52.16-.05.39-.09.31-.31-.08-.24-.35-.19-.56-.21Z"/>
        <path class="cls-143" d="M17.02,63.03c-.17-.17-.35-.34-.52-.52q-.82.08-.68,1.52c-.19-1.16-1.18-2.13-2.25-2.16-.6-.02-1.04.15-.68.89.17.09.34.17.52.26.26.3.12.8.52,1.04v.52c-.33.73-.06,1.35.48,1.79.42.34.64.76.87,1.19.47.56,1.18.49,1.79.61.6.12,1.12-.34.95-.9-.4-1.28-.34-2.61-.62-3.9-.04-.18-.22-.26-.36-.35Z"/>
        <path class="cls-48" d="M15.48,67.43c-.17-1.14-1.26-1.77-1.56-2.84-.78.16-1.32,1.31-2.25.66-1.02-.72-1.51-.07-2.02.62-.18.25-.42.25-.66.28-.04.8.85.71,1.14,1.2.11.06.22.1.35.12,1.37-.26,2.72-.23,4.05.19.29.09.58.11.85-.07.04-.05.07-.1.11-.15Z"/>
        <path class="cls-128" d="M10.29,67.17c-.13-.73-.91-.64-1.31-1.02-1.33-1.02-2.97-.93-4.49-1.11-.7-.08-.1.95-.43,1.37-.06.09-.05.16.04.22.6.19,1.2.37,1.79.56v-.08c.48-.42.92-1.17,1.55-.17.51.16,1.26.08,1.06,1,.17.18.33.17.5,0,0-.09,0-.17,0-.26.35-.38,1.08.23,1.3-.5Z"/>
        <path class="cls-48" d="M12.88,62.77c.04-.21.06-.48.3-.51.86-.1,2.15,1.18,2.18,2.11.01.4.18.89.61.84.65-.08,0-.51.08-.75.24-.63-.49-1.48.45-1.93-1.5-1.01-3.18-1.14-4.92-1.04.16.23.37.37.3.75-.16.97.34.95.99.54Z"/>
        <path class="cls-94" d="M4.09,66.62c0-.07-.02-.15-.04-.22-.17-.09-.33-.18-.5-.27-1.06.12-.56.89-.48,1.36.06.33.44.68.9.45.75-.37.15-.88.11-1.33Z"/>
        <path class="cls-48" d="M13.91,64.07c.08-.47.39-1.06-.52-1.04-.78.82-.22.97.52,1.04Z"/>
        <path class="cls-97" d="M22.19,44.91c.26-.29.52-.12.78,0,0-.18-.01-.36-.02-.54-.22-.34-.38-.68,0-1.01-.64-.93-.56-2.31-1.79-2.86-.15-.08-.29-.07-.42.04-.68,1.45.15,3.97,1.44,4.37Z"/>
        <path class="cls-17" d="M20.91,40.51c.09,0,.17,0,.26-.01.96-1.24-.25-1.74-.91-2.24-.5-.38-1.3-.41-1.68.44h0c-.3.4-.15.81.19.98.68.34,1.28.97,2.15.84Z"/>
        <path class="cls-109" d="M22.96,43.36c-.32.08-.79.08-.8.49,0,.41.53.33.79.52,0-.34,0-.67,0-1.01Z"/>
        <path class="cls-71" d="M24.02,46.19c.07.36-.14.77.32,1.19.26-.57.11-.91-.33-1.18h0Z"/>
        <path class="cls-33" d="M19.05,35.55c.1.13.19.28.31.4.19.18.44.37.58,0,.11-.27-.19-.32-.39-.36-.16-.03-.33-.03-.5-.05h0Z"/>
        <path class="cls-71" d="M24.01,46.2c-.05-.23-.02-.54-.36-.51-.07,0-.12.34-.17.52,0,0,0,0,0,0,.18,0,.36-.01.54-.02,0,0,0,0,0,0Z"/>
        <path class="cls-118" d="M66.87,71.14c.05.09.11.21.13.2.11-.04.25-.08.31-.16.08-.12,0-.25-.15-.23-.1.02-.19.13-.29.19Z"/>
        <path class="cls-61" d="M65.96,4.77c-.52,1.03-.5,2.2-.36,3.23.24,1.77.01,2.51-1.7,3.25-.59.82-.13,1.59.13,2.36.97.66,1.46.58,2.09-.36.83-1.24,1.24-2.61,1.22-4.1.01-.52-.24-.99-.23-1.51-.2-.56-.17-1.16-.29-1.74-.11-.51-.28-.98-.87-1.12Z"/>
        <path class="cls-88" d="M64.41,13.57c-.17-.78-.34-1.55-.51-2.32.47-1.49.59-2.99-.05-4.46-.21-.49.28-.67.3-1.03-.56-.48-.68,1-1.29.29-.88.77-.07,1.64-.15,2.46.16,1.16.42,2.29.32,3.5-.06.77.09,1.71,1.01,2.15.31-.08.46-.27.37-.6Z"/>
        <path class="cls-104" d="M63.13,8.64c-.09-.86-.17-1.73-.26-2.59-.08-.09-.17-.18-.25-.26-.82-.12-.45-1.08-1.09-1.58-.06.81.31,1.53-.21,2.09-.05.21-.13.42-.06.65.09.29.29.55.23.88.01.32.07.63.18.93.15.35.14.74.3,1.1.04.12.07.25.11.37.05.41.17.81.66.78.53-.02.57-.49.54-.86-.03-.5.1-1.03-.14-1.51Z"/>
        <path class="cls-27" d="M65.96,4.77c.49.88.18,1.99.78,2.85.38-.02.61.57,1.06.25.18-.52.19-1.04-.02-1.55-.24-.4-.15-.81.02-1.2.34-.81.09-1.19-.79-1.14-.55,0-.96.18-1.05.79Z"/>
        <path class="cls-16" d="M67.52,7.87c-.05-.25-.09-.52-.37-.61-.27-.08-.35.14-.41.35.01.53,0,1.07.26,1.55.16,2.73-.18,5.48.27,8.2.05.28-.12.49-.22.73-.06.18-.06.37-.02.56.61.87.13,1.81.17,2.71.04.25.15.48.21.72.03,1.97.19,3.95-.28,5.89-.04.13-.05.25-.04.38.05,1.04.2,2.09-.09,3.13-.03.46.07.94,0,1.14-.48-1.46-.22-3.23-.53-4.95-.19-.49-.3-.99-.14-1.51,0-.12-.02-.24-.05-.35-.07-.74-.69-1.39-.35-2.19-.34-1.23.08-2.38.4-3.55-.02-.12-.06-.23-.12-.33-.9-.59-.65-1.62-.92-2.44-.2-.65-.23-1.34-.37-2-.1-.49-.16-1.04-.77-1.21-.62-1.26-.58-2.62-.68-3.97-.04-.5.01-1.04-.34-1.48,0,.34.01.69,0,1.03-.02.37.13.91-.31,1.03-.51.14-.4-.56-.71-.76-.41,1.07-.63,2.13.23,3.11-.08.92.38,1.72.52,2.59-.15.84-.37,1.67.43,2.35.19.16,0,.5.08.75.18,1.55.36,3.11.53,4.66-.71,1.12-.02,2.3-.12,3.45-.03.32.1.67.22.99.36.79.72,1.56.21,2.43-.19.33-.11.69.08.98.69,1.06.54,2.29.75,3.45.07.26.17.49.44.6.39,1.4.76,2.79.29,4.26-.11.35-.21.85.23,1.03.45.19.93.09,1.26-.36.58-.02.76-.41.91-.91.63-2.1,1.08-4.23.93-6.44-.31-.86.33-1.79-.21-2.63,1.14-.14.44-1.08.69-1.6,0-1.38.24-2.75.28-4.13-.05-.25-.15-.5-.12-.76.18-2.12-.13-4.22-.3-6.33-.02-.3-.02-.63.14-.87.9-1.36.17-2.33-.77-3.25,0-.09,0-.17,0-.26.3-1.91-.12-3.64-1.29-5.18Z"/>
        <path class="cls-48" d="M64.43,27.8c-.25-1.46.04-2.98-.53-4.4-.47-.17-.62-.48-.55-.99.1-.68-.09-1.31-.72-2.23.24,1.69-.85,2.43-1.32,3.47-.54,1.19-.18,3,.78,3.88.79,1.57,1.11,3.29,1.64,4.94.45,1.38.4,2.96,1.39,4.25.54-.42.25-.98.37-1.43,0-.25-.01-.5-.02-.75-.49-1.02-.16-2.29-.97-3.21-.3-.34-.28-.7-.09-1.07.42-.82.31-1.64.03-2.46Z"/>
        <path class="cls-108" d="M62.09,27.55l-.78-3.88c-.21-2.2-.71-4.35-1.3-6.47-.42.02-.7.33-1.03.52-.86,1.04-.08,2.03.07,3.04.04.13.07.26.11.4.42.85.3,1.83.69,2.69-.03,1.04.22,2.04.44,3.04.12.57.38,1.05,1.02,1.18.38,0,.69-.09.78-.52Z"/>
        <path class="cls-82" d="M61.56,6.83c-.08-.17-.16-.35-.24-.52-.34-.46-.04-1.13-.51-1.55.04,1.07.02,2.14-.53,3.12.19.22.24.45.06.7-.34.46-.49.94.02,1.36.54.44,1.04.24,1.46-.23.04-.05.08-.1.12-.15.02-.3.2-.63-.12-.89.08-.26.3-.52,0-.78-.02-.37-.43-.63-.26-1.04Z"/>
        <path class="cls-127" d="M63.36,18.75c.38-1.12-.34-2.07-.51-3.1-.41.63-.57-.75-.7-.15-.1.45-1.31.93-.08,1.59.57.31.87,1.1,1.3,1.67Z"/>
        <path class="cls-82" d="M62.33,13.05c-.08-1.04-.15-2.08-.23-3.11-.01-.08-.02-.16-.03-.24-.07-.19-.15-.19-.24-.02,0,0-.01.01-.01.01-.04.25,0,.58-.14.73-1.13,1.14-.92,2.03.65,2.63Z"/>
        <path class="cls-48" d="M13.92,50.6c-1.08.12-1.61-.91-2.29-1.38-.87-.6-1.5-1.27-2.63-.95-.09.09-.15.2-.18.33,0,.7.58,1.02.99,1.44,2.27,2.29,4.4,4.73,6.88,6.8.56.47,1.06,1.04,1.87,1.04.8-.14,1.48-.88,2.46-.08.55.45.75-.35.77-.88-.25-1.12-.46-2.25-.88-3.32-.22-.56-.47-1.11-1.12-1.31-.83.05-1.2.89-1.99,1.09-.59.15-.78.09-.84-.48-.02-.21-.08-.42-.12-.63-.12-.58-.33-1.14-1.03-1.09-.68.05-.72.63-.73,1,.2-.81-.42-1.24-1.17-1.57Z"/>
        <path class="cls-102" d="M13.92,50.6c.66.6.72,1.4.77,2.21.03.47.21,1.08.79.94.45-.11.38-.69.22-1.12-.06-.16-.13-.32-.17-.49-.05-.26-.07-.57.25-.64.4-.09.55.24.53.55-.04.97.29,1.83.69,3.08.31-1.76,2.45-1.13,2.6-2.74.46-.36.39-.83.28-1.31-.14-.43-.35-.83-.64-1.18-.06-.03-.11-.06-.17-.09-.47.04-.64-.55-1.08-.55-.26.22-.17.49-.21.73-.06.32.36.91-.27.9-.38,0-.97-.35-.84-.93.19-.86-.23-.93-.83-.72-.53.19-.83.13-.91-.47-.2-.07-.42-.12-.59-.23-.38-.24-.78-.29-1,.13-.23.44.28.52.51.73.41.37,1.37.74.04,1.18Z"/>
        <path class="cls-4" d="M8.99,48.53c0-.09,0-.18,0-.26-.61-.77-1.22-1.54-1.83-2.32-.43-.6-.87-1.2-1.3-1.8-.73-.01-.7.35-.55.92.31,1.14,1.55,1.62,1.84,2.75.06.25.2.47.3.71.17.17.34.35.5.52.48.1.82-.08,1.03-.52Z"/>
        <path class="cls-128" d="M85.39,8.13c-.98.1-.58,1.11-1.03,1.56,0,0,0,0,0,0-.09,1-.43,1.98-.37,3,.09.33.29.63.34.97.07.44.28.74.73.75.47.01.45-.26.46-.67,0-.22.95.05.92-.68h0c-.19-.33-.23-.75-.52-1.03,0-.17,0-.35,0-.52-.24-.9.36-2-.73-2.7-.23-.15.14-.44.21-.67Z"/>
        <path class="cls-51" d="M89.52,12.01c-.04-.61.18-1.26-.23-1.83-.02.21.05.55-.06.62-1.11.71-.36.94.29,1.21Z"/>
        <path class="cls-132" d="M59.49,21.08c0-.09,0-.17,0-.26-.66-1.14-.8-2.35-.51-3.63-.09-.17-.18-.35-.26-.52-1.51.54-2.59-.29-3.74-1.26,1.31-.11,1.02-.45.52-1.36-.51-.92-.91-1.42-1.95-1.26-.3.05-.65.06-.53.53.54,1.29,1.4,2.44,1.7,3.84.18.88,1.06,1.32,1.42,2.11.38.83.68,1.68.78,2.59h0c1.28.44,1.87.26,2.59-.78Z"/>
        <path class="cls-58" d="M53.01,13.32c.18-.18.36-.35.53-.53-.43-.35-.86-.69-1.29-1.04-.27.78-.17,1.37.76,1.57Z"/>
        <path class="cls-91" d="M8.99,48.53c-.4.05-.76.2-1.03.52.17.17.34.35.51.52,1.27.83,1.9,2.23,2.93,3.28.77.78,1.42,1.69,2.28,2.4-.09.72.46,1.05.9,1.45.75.68,1.73,1.1,2.31,1.99.06.1.14.19.24.27.32.18.5.5.72.78.99.69,1.81,1.6,2.82,2.27.69.09,1.39.18,1.61-.74.02-.28-.05-.53-.22-.76-.49-.35-.84-.81-1.17-1.31-.55-.84-1.26-1.48-2.33-1.59-1.76-1.23-3.3-2.72-4.79-4.25-1.58-1.63-3.15-3.26-4.79-4.83Z"/>
        <path class="cls-84" d="M17.29,58.62c-.43-1-1.37-1.52-2.14-2.18-.48-.41-.98-.79-1.48-1.18-.34,0-.66-.27-1-.07-.13.08-.3.24-.3.37,0,.67.03.68-.58.75-.78.09-1.27.23-.57,1.14.19.25.26.78.38,1.19,1.46.09,2.79.32,3.77,1.66.47.64,1.35.98,2.18,1.21.25-.65.12-1.31-.27-1.78-.39-.47-.16-.74.03-1.1Z"/>
        <path class="cls-51" d="M17.29,58.62c-.31.02-.69-.32-.93.06-.21.33-.03.67.23.9.57.52.28,1.45.94,1.91,1.62,1.22,3.24,2.45,4.87,3.67.45.33.9.65,1.36.97.14.23.33.42.6.25.53-.32.25-.8.19-1.24-.12-.23-.17-.48-.28-.72-.88-1.33-1.81-2.6-3.62-2.7-.53-1.15-1.53-1.77-2.59-2.34-.43-.09-.58-.46-.79-.77h0Z"/>
        <path class="cls-141" d="M24.53,67.96c-2.13-.86-4.29-1.67-5.43-3.9-.25-.18-.56-.19-.83-.32-.19-.1-.49-.08-.49.2.02,1.57-.3,3.2.74,4.61,1.18.47,2.37.93,3.68.5.36-.12.66.1.99.16.61.11,1.2.17,1.56-.5.08-.29.04-.55-.21-.75Z"/>
        <path class="cls-48" d="M18.57,68.21c-.49-1.03-.78-2.58-.28-3.13.75-.83-.42-.75-.18-1.14.32.04.65.08.98.11-.61-.5-1.37-.72-2.08-1.03-.1,1.06.35,2.1.07,3.16-.03.11-.07.29,0,.35.31.33.9.61.46,1.13-.4.48-.85-.16-1.3-.16-.25,0-.5-.06-.76-.09,0,0-.02.02-.02.02-.1.15-.17.33-.06.48.6.81,2.29.96,3.17.3Z"/>
        <path class="cls-30" d="M24.53,67.96c0,.25,0,.51,0,.76.61.29,1.08-.31,1.66-.24.12-.04.23-.1.33-.17.28-.35.45-.76.57-1.19,0-.13-.02-.26-.07-.39-.69-1.1-1.66-1.62-2.97-1.4.04.28.42.47.26.77-.12.24-.36.1-.55.03.23.62,1.16.95.77,1.83Z"/>
        <path class="cls-122" d="M71.9,39.94c-.89.81-.64,2.28-1.75,3.08-.32-.54.06-1.04-.06-1.5-.38-.62-.79-.33-1.12.02-.31.33-.6.7-.76,1.15-.07.4-.01.77.32,1.05.55.26,1.06-.04,1.59-.12.17-.09.34-.18.5-.27.26-.34.53-.69.79-1.03.17-.34.45-.58.76-.79,0,0,0,0,0,0-.27-.5-.49-1-.28-1.58Z"/>
        <path class="cls-25" d="M70.12,43.62c-.52-.02-1.04-.04-1.55-.06-.23-.17-.41-.42-.73-.47-.32-.06-.57.09-.82.24,0,.1-.02.2-.03.3.35.42.7.85,1.05,1.27.97.21,1.16-1.11,2.06-1.04,0-.08.02-.15.02-.23Z"/>
        <path class="cls-125" d="M86.43,13.05c-.29.4-1.14.02-1.16.91,0,.33-.42.11-.53-.11-.19-.36-.19-.84-.63-1.05-.16,0-.18.17-.28.24.32.99-.07,1.86-.51,2.71-.28.54-.38,1.11-.28,1.71.15-.21.28-.42.45-.61.22-.27-.13-.94.45-.87.46.06,1.01.24,1.2.84.2.62.45,1.21,1.46,1.33-1.73-1.5-.31-2.65.41-3.54.92-1.16.36-1.29-.56-1.53Z"/>
        <path class="cls-125" d="M85.91,12.02c.06.4.21.76.52,1.03,0-.43-.1-.81-.52-1.03Z"/>
        <path class="cls-58" d="M67.52,7.87c.64,1.67.52,3.54,1.29,5.18,1.12-.45,1.48-1.68.92-3.22-.09-.24-.26-.44-.4-.66-.8-.19-.97-.83-1.16-1.5-.13-.45-.04-.97-.4-1.34-.04.52.13,1.09-.26,1.55Z"/>
        <path class="cls-92" d="M25.04,71.6c-.07.33-.14.65-.21.98.62.1,1.6-.98,1.8.54.44.16.39-.08.32-.38-.14-.64-.04-1.19.68-1.42.44-.03,1,.28.92-.67-.04-.48.54-1.03.88-1.48.53-.71.76-1.43.8-2.26.3-.6.56-1.2-.02-1.8-.17,0-.33,0-.5,0-.7.15-1.11.6-1.27,1.28-.04.25.05.49.09.74.13.88-.16,1.29-1.1.93-.35.03-.59.23-.82.47-.53.6-.86,1.35-1.43,1.93-.29.3-.5.72-.13,1.15Z"/>
        <path class="cls-82" d="M49.91,13.83c.46.82,1.48.9,2.07,1.55-.02-1.22-.67-2.25-1.03-3.37-.43.26-.48.61-.26,1.04-.02.5-.81.23-.78.78Z"/>
        <path class="cls-19" d="M50.69,13.05c.09-.35.18-.69.26-1.04-.21-.23-.48-.43-.52-.77-.15-.33-.31-.67-.46-1-.07.56-.09,1.11-.28,1.64-.32.92.11,1.26,1,1.17Z"/>
        <path class="cls-55" d="M9.51,71.84c.76-.87,1.6-.2,2.06.19.52.44.79.51,1.38.28.31-.12.89-.13,1.08.4.3.83.75.44,1.19.17-.89-1.12-.18-2.54-.7-3.72-.41-.41-.99-.21-1.46-.44-.59,0-1.1-.29-1.65-.47-.4-.07-.81-.14-1.12.24,0,.51,0,1.02,0,1.54,0,.52-.23.81-.8.72-.44-.07-1.13-.44-1.21.13-.09.59.58.94,1.24.97Z"/>
        <path class="cls-103" d="M10.28,68.48c.35.09.69.17,1.04.26.49.21,1.05.09,1.52.37.33.03.64-.04.91-.23.37-1.19-.37-1.89-1.91-1.84-.53.01-1.02.42-1.57.14h0c-.4.23-1.07-.21-1.3.5.56.06.84.56,1.29.8Z"/>
        <path class="cls-69" d="M8.99,67.93c-.17,0-.33,0-.5,0-1.02.04-1.21,1.09-1.32,1.6-.18.84.76.57,1.56.67-1.25-1.08.2-1.52.25-2.27Z"/>
        <path class="cls-3" d="M7.43,66.93c.17-.67-.02-1.11-.78-1.08-.84.03-.96.56-.77,1.25.52-.06,1.03-.11,1.55-.17Z"/>
        <path class="cls-58" d="M68.81,13.31c.76,1.43.07,2.88.11,4.31.06,2.27.42,4.54.42,6.82.75.15.84-.41.95-.91.1-.45.29-.46.61-.21.1.07.21.12.32.16.52,0,.91.08.84.78-.05.46-.04.92-.09,1.39-.08.72-.07,1.49.94,1.62.38-1.43.54-2.9.59-4.37-.42-.38-.18-.85-.06-1.21.25-.76.06-1.41-.17-2.11-.17-.52-.68-.96-.19-1.64.3-.41-.46-.26-.59-.58-.36-.93-.24-1.99-.81-2.88-.19-.3.23-.37.47-.43.52-.14.84-.42.8-1-.74-.51-2.09-.46-2.69.13-.45.44-.97.02-1.44.14Z"/>
        <path class="cls-116" d="M19.34,51.11c.22.4.26.84.27,1.29,1.04,1.38,1.34,3.05,1.82,4.65.3.47.02,1.24.76,1.49.92,0,.87-.55.71-1.22-.28-1.14-.83-2.22-.84-3.43-.11-1.24-.85-2.32-.92-3.57-.18-1.95-1.03-3.7-1.61-5.53-.14-.45-.43-.85-.97-.92-.74-.24-.36-.97-.62-1.42-.19-.31-.32-.84-.77-.72-.55.15-.2.62-.15.97.09.67.74,1.18.52,1.93.51,1.73,1.23,3.4,1.55,5.18.31.39-.05.9.25,1.29Z"/>
        <path class="cls-10" d="M65.97,130.88c-.13.34-.33.68.11.98.27-.37.12-.68-.11-.98h0Z"/>
        <path class="cls-119" d="M22.75,73.89c.68-.77,1.35-1.55,2.03-2.32.18-.15.15-.37.16-.57.04-1.16-.73-1.58-1.66-1.44-1.71.27-3.4-.28-5.1,0-.5-.17-1.02-.23-1.54-.18-.39,0-.78-.03-1.16.05-.54.11-.82.48-.37.9.57.53.63,1.06.36,1.73-.12.29,0,.6.26.81.26-.08.51-.15.77-.23.96.71,2.25.12,3.29.86.23.16,1.41.21,2.13.03.39-.09.68-.04.82.37Z"/>
        <path class="cls-98" d="M15.73,72.85c.08-.28.09-.63.26-.84.83-1.03.56-1.69-.65-2.19.4-.03.79-.05,1.19-.08-.59-.97-1.32-.77-2.09-.26-.49.71.12,1.77-.9,2.46.76.09,1.07.71,1.67.93.17,0,.35-.01.52-.02Z"/>
        <path class="cls-22" d="M58.98,17.19c-.42,1.29-.49,2.53.51,3.63-.21-1.03-.61-2.02-.5-3.1,0-.17,0-.35,0-.52Z"/>
        <path class="cls-119" d="M19.88,74.4c-.39-.36-.66-.17-1.08-.22.41.35.68.19,1.08.22Z"/>
        <path class="cls-99" d="M18.56,43.88c.8,2.12,1.59,4.25,2.1,6.47.86,1.37,1.22,2.87,1.39,4.47.04.4.35,1.05.99,1.02.64-.03.74-.63.91-1.1.13-.37.11-.78-.04-1.14-.31-.75-.69-1.46-.01-2.25.23-.27-.04-.64-.21-.95-.37-.67-.6-1.39-.71-2.15-.18-1.14-.16-2.32-.8-3.34-.71-1.39-1.34-2.79-1.28-4.4-.44-.5-.81-1.08-1.61-1.08-.44,0-.66-.32-.73-.74-.52.03-.89.56-1.55.27-.52-.22-.46.42-.51.77.3.15.56.02.83-.11.42-.2.7-.02.61.44-.27,1.36.46,2.54.61,3.82Z"/>
        <path class="cls-20" d="M67.02,43.33c.25.16.51.15.78.03.53-.65.74-1.48,1.28-2.12.12-.22.23-.45.33-.69.03-.13.04-.26.03-.4-.01-.21-.08-.4-.22-.56-.21-.2-.45-.31-.75-.27-.54.44-.98.91-.7,1.69-.26.69-.51,1.38-.77,2.07,0,.09.01.17.02.26Z"/>
        <path class="cls-140" d="M28.68,66.4c.53-.28.79-.78,1.03-1.28-.46-.2-.45-.75-.78-1.05-.18.17-.37.35-.55.52-.64.09-.89.64-1.25,1.07-.15.21-.24.44-.21.71.22.37.31.8.51,1.18,1.55.84.89-.7,1.24-1.15Z"/>
        <path class="cls-6" d="M24.54,72.87c-.09.08-.18.17-.27.25.16.28.24.66.65.69.19.01.31-.15.3-.33-.02-.42-.33-.55-.68-.61Z"/>
        <path class="cls-137" d="M72.18,41.53c-.46.07-.72.32-.76.79.25-.26.51-.53.76-.79Z"/>
        <path class="cls-96" d="M24.78,71.06c0,.17,0,.34,0,.51.09.01.18.02.27.03.34-1.13,1.43-1.78,1.82-2.88.11-.45-.19-.51-.52-.52-.09,0-.17,0-.26,0-1.14.63-1.4,1.66-1.31,2.86Z"/>
        <path class="cls-80" d="M81.49,17.2c-.28.26-.56.47-.73-.1-.07-.23-.08-.62-.43-.48-.43.17-.12.47-.02.74.11.31.17.64.27,1.08-.76-.13-1.37-.87-2.16-.03-.36.38-.69.56-.67,1.16.02.54-.22,1.02-.91.99-.27-.19-.54-.15-.54.18,0,.58-.68.62-.76,1.09-.06.18-.06.37-.01.55.68.73.51,1.77.94,2.61.24.47-.32.81-.7,1.09-.39.28-.93.2-1.29.55-.08.09-.13.2-.15.32.01.6.78,1.05.34,1.73.06.25.24.4.47.49.51.04.95.36,1.45.43,1.1-2.25,2.22-4.5,3.31-6.75.87-1.79,1.22-3.73,1.59-5.66Z"/>
        <path class="cls-26" d="M76.58,29.62c.14-1.21-.69-.8-1.29-.77-.88.62-1.35,1.41-1.12,2.53.16.79.47,1.31,1.4,1,.56-.55.34-1.4.74-2.01.09-.25.18-.5.27-.75Z"/>
        <path class="cls-78" d="M76.31,30.37c-.47.53-.55,1.24-.83,1.86-.01.04-.03.09-.04.13-.14.15-.36.12-.53.22-.4.28-.71.61-.51,1.16.26.24.52.48.91.31.7-.89,1.45-1.76,1.82-2.86.25-.61.49-1.21.74-1.82-.73-.17-.61.56-.88.86-.29.33-.24.9-.69,1.21-.23-.37.11-.73,0-1.07Z"/>
        <path class="cls-15" d="M83.04,10.72c-.33.27-.65.54-.98.81-.13.11-.53.21-.12.39.46.21.41.59.3.85-.21.5-.56-.04-.87.02-.29.06-.6,0-.9,0,0,.09,0,.17,0,.26h0c.87.06,1.2.87,1.81,1.29.66-1.12.4-2.44.75-3.62Z"/>
        <path class="cls-15" d="M82.04,15.39q-.53.93-1.35-.04c-.41.94.72,1.01.83,1.6.6-.38.46-1,.51-1.56Z"/>
        <path class="cls-105" d="M83.82,13.03c.09-.08.19-.16.28-.24-.06-1.05.4-2.06.25-3.12-.43,1.08-.51,2.21-.53,3.35Z"/>
        <path class="cls-15" d="M75.82,21.86c.5-.31,1.05-.58,1.02-1.31-.08-.53-.41-1.05-.04-1.61.67-1-.05-.98-.73-.98-.09.6-.17,1.21-.26,1.81-.23.15-.46.3-.47.61.15.49-.09,1.11.48,1.47Z"/>
        <path class="cls-95" d="M80.47,13.05c-.66.2-1.14.5-.41,1.15.21.19.61.64.85.31.39-.55-.21-.98-.44-1.45h0Z"/>
        <path class="cls-60" d="M72.9,27.27c-.88-1.34-.12-2.72-.2-4.13-.46-.09-1-.12-1.55,0-.06.06-.1.12-.11.21.01-.08.05-.15.11-.2-.12-.18-.22-.36-.35-.52-.19-.23-.16-.77-.66-.56-.38.16-.56.52-.45.94.16.56.25,1.08-.36,1.44-.21,1.46-.32,2.93-.26,4.4.19.42.42.81.49,1.3.16,1.05,1.35,1.57,2.41,1.14.71-.88,1-1.86.7-2.98.18-.32.29-.66.22-1.03Z"/>
        <path class="cls-89" d="M72.68,28.31c-.34.96-.68,1.91-1.01,2.87-.14.4-.58.47-.84.75-.45.68-.75,1.41-.75,2.23.09.44,0,.99.61,1.15.61.16.95-.22,1.24-.68.14-.22.32-.4.45-.62.25-.37.32-.8.34-1.23.61-1.37.98-2.82,1.57-4.2.08-.1.13-.2.17-.32.06-.32-.02-.61-.14-.91-.1-.28,0-.64-.32-.84-.64.45-.15,1.73-1.32,1.79Z"/>
        <path class="cls-3" d="M75.55,20.3c.08-.17.17-.34.25-.51h-1.03c-.03,1.85.26,3.74-.74,5.47-.26.45.59.31.47.73.07.02.13.04.2.06,1.28-.89.92-2.24.98-3.47.04-.76-.22-1.51-.13-2.27Z"/>
        <path class="cls-3" d="M73.99,26.52c0,.34,0,.69,0,1.03.5.15.37-.31.51-.52,0-.08.01-.17.02-.25.18-.26.24-.52,0-.78,0,0-.02-.02-.02-.02-.29.06-.46.24-.51.53Z"/>
        <path class="cls-80" d="M61.31,28.07c-.6-1.41-.81-2.91-1.04-4.4-.54-.32-1.05-.64-1.49-1.13-.35-.38-.98-.96-1.36.09h0c.48.93.99,1.85,1.29,2.86.29,1.51,1.13,2.85,1.31,4.38,1.19,1.54,1.61,3.56,3.1,5.04.29-2.57-1.5-4.52-1.81-6.85Z"/>
        <path class="cls-22" d="M57.42,22.63c.65-.5.87.07,1.18.46.43.54.88,1.08,1.67.57-.31-.85.06-1.9-.78-2.59-.88.22-1.64.8-2.59.78.17.26.34.52.52.77Z"/>
        <path class="cls-22" d="M58.71,25.5c.18-1.23-.61-2.02-1.29-2.86.22,1.05.41,2.11,1.29,2.86Z"/>
        <path class="cls-22" d="M56.9,21.86c.07-.96-.06-1.87-.78-2.59,0,.94.54,1.72.78,2.59Z"/>
        <path class="cls-21" d="M72.18,32.73c-.42.15.33.68-.25.78.04,1.26-1.12,1.96-1.41,3.07-.04.77.15,1.56-.79,2.07-.49.26-.11,1.18-.65,1.59-.01.08-.02.17-.02.25.05.45-.28.73-.46,1.07,0,.34-.29.66-.04,1,.71-.06.51-1.43,1.52-1.04,1.1-2.15,2.09-4.36,3.42-6.39.14-.21.32-.38.49-.57.57-.01.81-.23.5-.8.11-.47.51-.72.78-1.06.23-.1.42-.21.31-.52,0,0-.1.04-.11.04-.76-.29-1.15-1.64-.62-2.35.24-.33.44-.62.43-1.03-.17-.09-.34-.18-.52-.26.16-.19.14-.41-.06-.51-.2-.1-.38.04-.48.24h0c-.67.76-.58,1.79-.89,2.68-.25.71-.55,1.3-1.17,1.73Z"/>
        <path class="cls-78" d="M74.5,33.77c-.04.35-.24.59-.5.8.14.57.51.33.84.24.15-.09.31-.18.46-.26,0-.17,0-.34.01-.5-.24-.19-.45-.48-.82-.27Z"/>
        <path class="cls-60" d="M70.63,34.28c-.15-.85.55-1.5.53-2.32-.05-.37-.34-.58-.6-.78-.85-.66-1.63-.35-1.86.7-.06.28.07.59-.15.85.01,2.07-.28,4.1-.72,6.12-.11.52-.27.97-.57,1.39.01.36.07.69.51.77.26-.52.52-1.03.79-1.55.85-.48,1.09-1.35,1.34-2.19.16-.53.34-1.04.51-1.56.01-.48-.23-1.01.22-1.42Z"/>
        <path class="cls-56" d="M22.99,48.25c-.04.56,0,1.12.24,1.64.29.64.82,1.23-.3,1.73-.44.19-.17.86.05,1.29.82,1.58.73,1.06.06,2.69-.65-.9-.99-1.73-.9-2.87.05-.61.29-1.87-1.12-1.87-.12,0-.24-.33-.36-.5.04,1.29.86,2.37,1.02,3.63.14.99.65,1.88.77,2.87.5.2.92.57,1.4.82.48.24,1.02.44,1.48-.08.42-1.12.05-2.24-.19-3.29-.47-2.09-1.1-4.15-2.15-6.04Z"/>
        <path class="cls-48" d="M25.33,57.58c-.72-.2-1.52-.19-2-.95-.23-.37-.5-.19-.62.18,0,.06.01.12.02.17.29.75.52,1.53.86,2.26.15.68.43,1.32.65,1.98.59.89.56,2.12,1.54,2.8.54.62.26,1.92,1.58,1.87.54-.28.83-.75,1.02-1.31-.46-.75-.96-1.43-1-2.41-.05-1.26-1.37-2.03-1.55-3.29-.17-.43-.33-.87-.5-1.3Z"/>
        <path class="cls-138" d="M24.78,71.06c.32-1,1.09-1.8,1.31-2.86-.7-.38-1.2-.15-1.56.52-.42.26-.84.17-1.22-.06-.62-.38-1.12-.65-1.8.04-.37.38-.98-.31-1.55-.27-.46.03-.92-.14-1.39-.22-1.14.17-2.23.09-3.11-.77-1.22-.62-2.53-.63-3.87-.63-.53,0-.87.27-1.31.37.05.18.18.37.34.3.84-.39,1.58.2,2.39.19.63-.01.65.56.63,1.06.59.63,1.41.18,2.12.43.44.15,1,.4,1.58.24.42-.11.52.34.7.62,1.78-.28,3.53.6,5.34.08.5-.14,1.25.16,1.38.96Z"/>
        <path class="cls-30" d="M64.15,14.09c.37,1.1.15,2.33.77,3.37.81.19,1.51.68,2.35.77.26-.09.49-.26.47-.54-.19-2.85.11-5.74-.74-8.53-.08.26-.63.14-.46.63.28.8-.6,3.3-1.28,3.79-.3.21-.57.1-.85-.02-.09.17-.18.35-.27.52Z"/>
        <path class="cls-16" d="M61.56,6.83c-.37.46-.15.78.26,1.04.7-.55.12-.77-.26-1.04Z"/>
        <path class="cls-16" d="M61.83,9.68c.08,0,.16.01.25.02-.18-.33.91-.96-.26-1.05,0,.34,0,.69.01,1.03Z"/>
        <path class="cls-80" d="M65.97,27.56c.22,2.32.45,4.64.67,6.96.74-.98.93-2.01.87-3.09-.29-1.04-.13-2.07.03-3.1h0c.19-.7.25-1.4.13-2.12-.07-.43-.22-.74-.66-.8-.48-.06-.96-.07-1.04.59h0c.56.52-.43,1.04,0,1.55Z"/>
        <path class="cls-84" d="M65.97,20.04c-.81,1.12-.92,2.33-.52,3.63.22.5.27,1.08.76,1.44.37.28.81.37,1.21.18.4-.18.25-.6.16-.92-.24-.87-.08-1.69.2-2.52-.08-.18-.15-.35-.23-.53-.55-.4-.56-1.46-1.58-1.28Z"/>
        <path class="cls-30" d="M67.77,21.86c-1.42.86-1.37,1.89-.15,3.05-1.27.24-1.61-.68-2.18-1.23-.19.86.15,1.6.51,2.33,1.3-.44,1.53-.31,1.56.95.01.46,0,.92.01,1.39.39-.69.49-1.41.31-2.2-.21-.89.07-1.77.18-2.66.07-.55.04-1.11-.25-1.62Z"/>
        <path class="cls-84" d="M67.27,18.24c-.77-1.02-1.68-1.32-2.35-.77.03.51.15,1.02.09,1.52-.1.83.31.92.95.81.86.17,1.43-.02,1.32-1.06,0-.16,0-.33,0-.49Z"/>
        <path class="cls-97" d="M68.55,32.73q.82-1.86,2.61-.77c.42-.1.5-.41.5-.78-1.01-.16-2.01-.3-1.76-1.75.13-.73-.65-.24-.83-.58-.2,1.29-.6,2.55-.52,3.88Z"/>
        <path class="cls-30" d="M67.27,18.73c-.28.55-.79.81-1.32,1.06,0,.08,0,.17,0,.25.26.16.48.37.48.68.01.87.53.77,1.09.6.37-.69.37-1.44.39-2.18.01-.51-.27-.54-.66-.41Z"/>
        <path class="cls-15" d="M64.43,27.8c-.01.9.03,1.8-.32,2.66-.08.19-.18.53-.09.6,1.03.94.71,2.43,1.45,3.48.5-.67-.07-1.5-.23-1.86-.69-1.48-.33-2.94-.41-4.4,0-.17-.25-.32-.39-.48Z"/>
        <path class="cls-30" d="M67.53,28.33c-.05,1.03-1.28,2.06-.03,3.1.36-1.03-.05-2.07.03-3.1Z"/>
        <path class="cls-30" d="M65.97,27.56c-.04-.52.93-1.04,0-1.55-.05.52-.47,1.04,0,1.55Z"/>
        <path class="cls-54" d="M22.22,58.36c-.26-.44-.52-.87-.79-1.31-.07.19-.19.7-.31.44-1-2.22-1.74-.35-2.56.11,1.04,1.03,2.08,2.05,3.12,3.08.49-.35.76-.87,1.02-1.39.11-.45-.13-.72-.49-.93Z"/>
        <path class="cls-68" d="M19.34,51.11c-.01-.44.06-.9-.25-1.29.01.44-.09.91.25,1.29Z"/>
        <path class="cls-108" d="M20.66,61.73c.91.68,2.13,1.01,2.54,2.29.08.25.53.38.81.56.24.18.46.39.71.56.81.56,1.28.41,1.37-.61-.18-.63-.72-.99-1.13-1.45-.61-.12-.86-.63-1.2-1.06-.45-.56-.94-1.15-1.81-.81-.21.72-.88.28-1.28.51Z"/>
        <path class="cls-66" d="M21.94,61.22c.83.51,1.61,1.08,2.12,1.95.12.21.35.94.73.12.18-1.09-.31-2.02-.94-2.77-.35-.42-.11-1.35-1.02-1.29-.12.02-.23.08-.33.16-1.36-.24-.57.84-.8,1.3.08.18.17.35.25.53Z"/>
        <path class="cls-84" d="M17.29,58.62c-.06.58.05.99.79.77-.2-.32-.33-.71-.79-.77Z"/>
        <path class="cls-20" d="M25.82,64.59c-.09.3-.08.74-.61.41-.37-.23-.69-.62-1.21-.41.01.25.03.49.04.74,1,.41,1.98.86,2.8,1.6.26-.08.39-.24.32-.53.07-.17.14-.33.21-.5-.64-.57-.76-1.45-1.25-2.11-.64.07-.4.46-.28.8Z"/>
        <path class="cls-8" d="M26.34,68.2c.17.17.35.35.52.52.31-.04.49-.21.55-.52.08-.09.11-.19.11-.31-.14-.31-.27-.64-.68-.7-.41.22-.51.59-.5,1.01Z"/>
        <path class="cls-18" d="M26.84,67.19c.07.32.21.61.51.78.47.02.45-.22.29-.54,0-.43-.1-.8-.49-1.03-.1.18-.21.35-.31.53,0,.09,0,.17,0,.26Z"/>
        <path class="cls-79" d="M68.56,42.57c.09-.35.17-.69.26-1.04.15-.17.14-.35,0-.52-.65.64-1.13,1.36-1.02,2.34.22.22.49.24.78.21,0-.33,0-.66,0-.99Z"/>
        <path class="cls-67" d="M27.65,67.43c-.1.18-.2.36-.29.54.02.08.04.16.06.23.34.32.15,1.26,1.04.91.57-.22.83-1.59.46-2.28-.08-.14-.16-.29-.24-.43-.62.07.03,1.4-1.03,1.03Z"/>
        <path class="cls-35" d="M18.06,70.01c.12-.25.69-.35.45-.65-.26-.31-.6-.63-1.21-.5-.87.17-1.88.36-2.34-1.16-.12,1.06-.62,1.21-1.3,1.02-.26.09-.51.17-.77.26-.09.06-.12.11-.09.17.03.06.06.08.1.08.53.05,1.09-.12,1.56.25.7.08,1.43-.13,2.09.26.51.09,1.02.18,1.53.27Z"/>
        <path class="cls-138" d="M12.88,69.24c0-.08,0-.17,0-.25-.49-.27-1.02-.26-1.56-.25.47.33,1.03.35,1.56.5Z"/>
        <path class="cls-20" d="M22.49,59.39h.12s.12,0,.12,0c.63-.12.77.35.97.79.17.39.17.99.88.8-.19-.6-.38-1.2-.57-1.8-.66-.66-.7-1.66-1.28-2.36h0c-.43-.91-.49-1.97-1.04-2.84-.08,1.2.37,2.28.76,3.37.15.43.42.8-.22,1.02.09.34.18.68.27,1.02Z"/>
        <path class="cls-89" d="M70.06,35.56c-.5,1.3-1.01,2.6-1.51,3.9.18.09.37.18.55.28.7-.63,1.16-1.43,1.52-2.29,0-.43.07-.85.15-1.28.1-.51-.07-.88-.71-.61Z"/>
        <path class="cls-58" d="M70.37,37.39c-.42.78-.85,1.56-1.27,2.34,0,.17,0,.34-.01.52.49-.07.75-.38.86-.84.05-.2.07-.55.17-.58,1.35-.37.78-1.38.78-2.21-.68-.08-.19.62-.52.78Z"/>
        <path class="cls-122" d="M68.82,41.02c0,.17,0,.35,0,.52.26-.3.61-.59.24-1.04-.08.17-.17.35-.25.52Z"/>
        <path class="cls-36" d="M74.52,26c0,.26,0,.52,0,.78.7.15,1.26.05,1.95-.35.71-.41.17-1.52,1.27-1.56-1-.29-1.61-.5-.92-1.7.62-1.09-.8-.36-1.03-.81-.1-.16-.18-.16-.25.02-.73,1.1-.24,2.54-1.03,3.63Z"/>
        <path class="cls-36" d="M74.24,28.32c.27-.1.5-.11.54.26.81-.5.77-.75-.27-1.55-.17.17-.34.35-.51.52.08.26.16.52.24.77Z"/>
        <path class="cls-3" d="M75.55,22.38c.08,0,.17-.01.25-.02,0-.17.01-.33.02-.49-.05-.53.12-1.09-.26-1.57-.89.69.16,1.39,0,2.08Z"/>
        <path class="cls-78" d="M75.59,32.19c-.1.17-.21.34-.31.52.41.22.58-.1.65-.37.07-.27-.19-.17-.34-.15Z"/>
        <path class="cls-58" d="M71.15,23.15c-.29.37-.31.68.21.89.26-.4-.27-.58-.21-.89h0Z"/>
        <path class="cls-40" d="M72.18,32.73c1.6-.07,1.37-1.57,1.84-2.46.28-.54.16-1.3.22-1.95-.31,0-.76-.2-.74.38.04,1.51-.79,2.72-1.32,4.04Z"/>
        <path class="cls-20" d="M70.37,37.39c.17-.26.35-.52.52-.78.4-1.02,1.33-1.86,1.05-3.11-.19.37-.37.74-.56,1.1-.12.22-.23.5-.54.41-.44-.12-.17-.48-.2-.74-.52.28-.5.8-.56,1.28.96.47.06,1.24.31,1.83Z"/>
        <path class="cls-116" d="M24.57,60.98c-.53-.24-.51-.83-.8-1.22-.24-.32-.42-1.07-1.05-.37.59.88,1.24,1.74,1.5,2.78.11.43.34.77.56,1.13.35.43.69.87,1.04,1.3,0-.3.05-.59.28-.8-.82-.77-.91-1.94-1.54-2.81Z"/>
        <path class="cls-56" d="M22.72,56.82c.38.81.32,1.86,1.28,2.36-.36-.82-.51-1.76-1.28-2.36Z"/>
      </g>
    </g>
  </g>
</svg>